<?xml version="1.0" encoding="UTF-8" standalone="no"?>
<!DOCTYPE svg PUBLIC "-//W3C//DTD SVG 1.1//EN" "http://www.w3.org/Graphics/SVG/1.1/DTD/svg11.dtd">
<svg width="100%" height="100%" viewBox="0 0 480 480" version="1.1" xmlns="http://www.w3.org/2000/svg" xmlns:xlink="http://www.w3.org/1999/xlink" xml:space="preserve" xmlns:serif="http://www.serif.com/" style="fill-rule:evenodd;clip-rule:evenodd;stroke-linejoin:round;stroke-miterlimit:2;">
    <g transform="matrix(0.868421,0,0,0.950366,26.3616,13.8235)">
        <g id="Layer1">
            <path d="M522.372,61.215C522.372,19.402 485.221,-14.545 439.462,-14.545L52.553,-14.545C6.795,-14.545 -30.356,19.402 -30.356,61.215L-30.356,414.763C-30.356,456.576 6.795,490.523 52.553,490.523L439.462,490.523C485.221,490.523 522.372,456.576 522.372,414.763L522.372,61.215Z" style="fill:white;"/>
        </g>
    </g>
    <g transform="matrix(1.08906,0,0,1.08906,-8.87416,-21.3742)">
        <g transform="matrix(8.96408,0,0,8.96408,-2395,-982.665)">
            <rect x="269.928" y="117.985" width="2.201" height="36.829" style="fill:rgb(0,174,146);"/>
        </g>
        <g transform="matrix(1,0,0,1,-22.9556,0)">
            <g transform="matrix(8.96408,0,0,8.96408,411.209,260.872)">
                <path d="M0,-1.576C-0.142,-1.589 -0.26,-1.464 -0.213,-1.311C-0.226,-1.312 -0.241,-1.317 -0.254,-1.325L-0.916,-1.779C-0.96,-1.809 -0.973,-1.867 -0.949,-1.915C-0.824,-1.921 -0.689,-1.985 -0.706,-2.136C-0.656,-2.071 0.059,-1.692 0,-1.576M-2.44,-3.879C-2.478,-3.831 -2.561,-3.728 -2.561,-3.728C-3.295,-4.566 -5.776,-5.53 -6.848,-5.374C-6.848,-5.374 -6.835,-5.498 -6.829,-5.564L-6.835,-5.561L-6.428,-5.82L-6.777,-6.108C-6.773,-6.149 -7,-7.56 -7,-7.56L-6.384,-7.58C-6.384,-7.58 -6.604,-7.321 -6.614,-7.117C-6.58,-7.093 -6.549,-7.059 -6.529,-7.015C-6.406,-7.068 -6.274,-7.322 -6.274,-7.322L-6.215,-6.489C-6.215,-6.489 -6.386,-6.73 -6.511,-6.772C-6.52,-6.741 -6.534,-6.712 -6.555,-6.689C-6.378,-6.136 -5.569,-6.103 -5.569,-6.577C-5.597,-6.824 -5.868,-6.784 -5.854,-6.523C-6.297,-6.875 -5.697,-7.436 -5.452,-6.871C-5.483,-7.197 -5.455,-7.381 -5.203,-7.542C-5.035,-7.33 -5.058,-7.132 -5.24,-6.816C-4.695,-7.321 -4.488,-6.464 -4.999,-6.339C-4.748,-6.788 -5.466,-6.647 -5.203,-6.176C-4.962,-5.808 -4.377,-5.862 -4.172,-6.261C-4.187,-6.285 -4.198,-6.311 -4.203,-6.337C-4.407,-6.378 -4.711,-6.204 -4.711,-6.204L-4.428,-6.972C-4.428,-6.972 -4.309,-6.644 -4.14,-6.541C-4.109,-6.57 -4.07,-6.591 -4.027,-6.601C-3.995,-6.803 -4.2,-7.12 -4.2,-7.12L-3.256,-6.757C-3.256,-6.757 -3.628,-6.661 -3.747,-6.494C-3.725,-6.458 -3.71,-6.417 -3.708,-6.375C-3.511,-6.336 -3.192,-6.497 -3.192,-6.497L-3.531,-5.748C-3.531,-5.748 -3.63,-6.077 -3.806,-6.184C-3.829,-6.168 -3.855,-6.157 -3.882,-6.15C-4.016,-5.716 -3.624,-5.294 -3.194,-5.4C-2.673,-5.559 -3.086,-6.152 -3.226,-5.654C-3.508,-6.09 -2.751,-6.569 -2.714,-5.841C-2.622,-6.191 -2.499,-6.352 -2.229,-6.393C-2.159,-6.108 -2.269,-5.957 -2.522,-5.74C-1.937,-5.986 -1.909,-5.175 -2.476,-5.219C-2.279,-5.401 -2.452,-5.61 -2.644,-5.449C-2.982,-5.097 -2.351,-4.592 -1.856,-4.843C-1.857,-4.874 -1.849,-4.905 -1.835,-4.934C-1.958,-5.019 -2.248,-5.029 -2.248,-5.029L-1.642,-5.476C-1.642,-5.476 -1.714,-5.204 -1.657,-5.063C-1.613,-5.069 -1.566,-5.064 -1.525,-5.048C-1.395,-5.178 -1.387,-5.53 -1.387,-5.53L-0.936,-4.967C-0.936,-4.967 -2.069,-4.446 -2.271,-4.293L-2.585,-4.324L-2.429,-3.881L-2.44,-3.879ZM-5.774,-7.977C-5.585,-7.91 -5.406,-7.811 -5.216,-8C-5.398,-8 -5.455,-8.128 -5.507,-8.252C-5.597,-8.875 -4.578,-8.656 -4.198,-8.61C-3.241,-8.029 -1.615,-8.4 -2.18,-9.784C-1.737,-9.51 -1.89,-8.752 -2.225,-8.457C-3.109,-7.978 -3.948,-8.338 -4.83,-7.402C-4.963,-7.83 -5.471,-7.806 -5.654,-7.335C-5.823,-7.324 -5.867,-7.327 -6.026,-7.316C-6.056,-7.565 -5.855,-7.742 -5.774,-7.977M-3.412,-10.378C-3.695,-10.184 -3.948,-9.898 -4.237,-10.285C-4.304,-10.272 -4.358,-10.261 -4.426,-10.248C-4,-10.908 -4.035,-10.795 -3.412,-10.378M-2.45,-11.888C-2.238,-11.656 -2.147,-11.403 -2.147,-11.117C-2.351,-11.187 -2.439,-11.408 -2.45,-11.888M-11.255,-8.14L-10.185,-8.52L-9.795,-7.731L-10.537,-7.259L-11.255,-8.14ZM-11.942,-8.327C-12.077,-7.511 -13.908,-7.863 -13.733,-8.67C-13.597,-9.487 -11.766,-9.136 -11.942,-8.327M-15.583,-7.972L-16.726,-8.778L-15.582,-9.585L-14.439,-8.779L-15.583,-7.972ZM-18.204,-7.873C-19.365,-7.637 -19.611,-8.914 -18.447,-9.126C-17.286,-9.36 -17.04,-8.084 -18.204,-7.873M-20.627,-7.259L-21.367,-7.731L-20.977,-8.52L-19.907,-8.14L-20.627,-7.259ZM-6.536,-9.824C-6.443,-9.834 -6.368,-9.842 -6.266,-9.854C-6.443,-9.982 -6.269,-10.16 -6.122,-10.034C-5.769,-9.761 -6.476,-9.315 -6.536,-9.824M0.55,-0.666L0.453,-0.679L0.19,-1.39C0.313,-1.547 0.379,-1.801 0.186,-1.928C-0.07,-2.029 -0.791,-2.854 -1.004,-2.32C-1.097,-2.287 -1.667,-2.255 -1.712,-2.147C-1.986,-2.582 -2.219,-3.043 -2.39,-3.554C-2.277,-4.15 -0.703,-4.892 -0.703,-4.892C-0.703,-4.892 -1.151,-5.535 -1.328,-5.898C-1.408,-5.721 -1.48,-5.795 -1.652,-5.717C-0.778,-7.272 -0.593,-9.316 -1.75,-10.786C-1.869,-11.04 -1.813,-11.377 -1.931,-11.626C-2.131,-11.892 -2.271,-12.413 -2.624,-12.468C-2.626,-12.007 -2.675,-11.555 -2.45,-11.127C-2.212,-10.829 -2.775,-10.576 -2.95,-10.811C-2.614,-10.85 -2.557,-10.917 -2.673,-11.105C-4.118,-11.431 -4.926,-10.415 -6.306,-10.256C-6.427,-10.257 -6.536,-10.213 -6.604,-10.103C-7.452,-8.958 -5.546,-9.74 -5.38,-8.981C-5.699,-8.717 -5.743,-8.892 -6.041,-8.968C-6.471,-8.95 -6.886,-8.817 -6.35,-8.454C-6.679,-7.941 -6.661,-7.759 -7.327,-7.715C-7.039,-7.308 -7.101,-6.72 -7.026,-6.258C-7.5,-6.168 -7.822,-5.94 -7.832,-5.434C-8.043,-5.387 -8.274,-5.498 -8.426,-5.268C-8.724,-5.514 -9.066,-5.559 -9.424,-5.566C-9.596,-5.694 -10.019,-5.999 -10.474,-6.232C-10.384,-6.567 -10.298,-6.883 -10.216,-7.177C-10.085,-7.262 -9.606,-7.567 -9.484,-7.645C-9.547,-7.773 -9.8,-8.281 -9.868,-8.42C-9.017,-11.35 -8.74,-11.514 -8.309,-11.578L-8.284,-11.659L-9.862,-12.164L-9.888,-12.059C-9.49,-11.771 -9.36,-11.291 -9.542,-10.729C-9.964,-10.912 -10.203,-11.311 -10.158,-11.667C-10.166,-11.669 -10.262,-11.696 -10.262,-11.696L-10.789,-9.946C-10.789,-9.946 -10.713,-9.924 -10.705,-9.92C-10.498,-10.222 -10.137,-10.389 -9.72,-10.319C-10.207,-8.768 -12.399,-9.251 -12.007,-10.568C-11.727,-11.112 -11.196,-10.764 -11.452,-10.194C-10.221,-10.627 -10.947,-12.396 -12.001,-11.342C-11.652,-12.055 -11.455,-12.613 -11.891,-13.303C-12.458,-12.938 -12.603,-12.279 -12.494,-11.402C-13.189,-12.989 -14.402,-11.353 -13.415,-10.526C-13.596,-11.705 -12.141,-10.925 -13.125,-9.976C-14.063,-9.31 -15.217,-10.075 -15.251,-11.247C-14.709,-11.198 -14.294,-10.876 -14.239,-10.475C-14.229,-10.474 -14.14,-10.471 -14.14,-10.471L-14.073,-12.471C-14.073,-12.471 -14.185,-12.478 -14.195,-12.478C-14.28,-12.072 -14.719,-11.729 -15.276,-11.719C-15.238,-12.336 -14.885,-12.816 -14.426,-12.896L-14.426,-13.008L-16.736,-13.008L-16.736,-12.896C-16.279,-12.816 -15.924,-12.336 -15.886,-11.719C-16.443,-11.729 -16.884,-12.072 -16.967,-12.478C-16.977,-12.478 -17.091,-12.471 -17.091,-12.471L-17.024,-10.471C-17.024,-10.471 -16.933,-10.474 -16.923,-10.475C-16.868,-10.876 -16.454,-11.198 -15.912,-11.247C-15.945,-10.075 -17.101,-9.31 -18.038,-9.976C-19.023,-10.926 -17.568,-11.705 -17.747,-10.526C-16.76,-11.355 -17.975,-12.989 -18.668,-11.402C-18.559,-12.279 -18.704,-12.938 -19.271,-13.303C-19.708,-12.613 -19.51,-12.055 -19.161,-11.342C-20.216,-12.396 -20.939,-10.624 -19.71,-10.194C-19.966,-10.764 -19.435,-11.112 -19.157,-10.568C-18.763,-9.251 -20.959,-8.769 -21.444,-10.319C-21.027,-10.389 -20.666,-10.222 -20.457,-9.92C-20.451,-9.924 -20.374,-9.946 -20.374,-9.946L-20.9,-11.696C-20.9,-11.696 -20.996,-11.669 -21.004,-11.667C-20.959,-11.311 -21.2,-10.912 -21.621,-10.729C-21.802,-11.291 -21.672,-11.771 -21.274,-12.059L-21.302,-12.164L-22.878,-11.659L-22.855,-11.578C-22.424,-11.514 -22.147,-11.35 -21.296,-8.42C-21.366,-8.28 -21.615,-7.777 -21.68,-7.645C-21.559,-7.568 -21.076,-7.26 -20.946,-7.177C-20.871,-6.909 -20.794,-6.622 -20.713,-6.32L-20.703,-6.324C-20.708,-6.313 -20.711,-6.31 -20.713,-6.32C-22.832,-5.328 -22.352,-4.656 -23.983,-4.848C-24.13,-4.511 -24.266,-4.177 -24.599,-3.948C-24.659,-4.464 -24.89,-4.866 -25.194,-5.232C-25.344,-5.408 -25.551,-5.213 -25.775,-5.195C-26.218,-4.231 -26.524,-5.102 -27.304,-4.597C-27.273,-4.148 -27.205,-3.7 -26.959,-3.285C-27.538,-3.326 -28.017,-3.482 -28.401,-3.756C-30.135,-1.819 -31.945,0.042 -33.428,2.173C-34.219,3.218 -36.337,2.609 -35.779,1.169C-35.523,0.115 -34.003,0.34 -34.099,1.383C-33.347,0.55 -33.83,-0.282 -34.978,-0.096C-33.924,-0.552 -33.291,0.311 -32.342,-0.874C-33.067,-0.858 -33.682,-1.088 -34.406,-0.922C-33.49,-1.47 -32.233,-0.655 -31.452,-2.169C-32.132,-2.095 -32.749,-1.81 -33.452,-1.706C-29.223,-5.738 -33.293,-5.937 -32.775,-7.68C-33.106,-7.4 -33.298,-7.119 -33.143,-6.743C-34.091,-7.138 -35.497,-7.023 -35.881,-8.174C-35.972,-6.534 -35.253,-6.652 -34.014,-6.315C-34.585,-6.383 -35.15,-6.386 -35.684,-6.585C-35.575,-5.849 -35.017,-5.693 -34.361,-5.763C-35.002,-5.408 -34.857,-4.493 -34.203,-4.177C-34.621,-6.549 -31.068,-5.737 -32.691,-3.557C-33.443,-2.436 -34.533,-1.602 -35.448,-0.62C-35.621,-0.92 -35.801,-1.218 -36.202,-1.176C-35.504,-0.371 -36.291,0.504 -36.475,1.335C-36.746,2.362 -35.839,3.234 -34.865,3.355C-35.253,3.815 -35.285,4.222 -34.986,4.598C-34.693,3.089 -32.507,3.43 -32.302,1.799C-32.264,1.606 -32.171,1.455 -31.956,1.369C-32.943,2.482 -30.573,4.839 -32.8,5.116C-33.117,5.124 -33.197,5.46 -33.019,5.697C-33.939,5.65 -34.193,6 -34.333,6.868C-33.928,6.762 -33.55,6.664 -33.169,6.567C-33.57,7.615 -34.48,6.506 -34.33,8.372C-33.957,8.194 -33.609,8.006 -33.268,7.796C-32.94,8.842 -34.935,8.39 -33.438,10.062C-33.342,9.751 -32.941,9.109 -32.738,8.969C-32.923,9.495 -32.879,10.104 -32.289,10.34C-32.261,10.198 -32.236,10.075 -32.212,9.951C-32.184,9.951 -32.189,9.951 -32.162,9.949C-32.079,10.298 -32.065,10.784 -31.729,10.985C-31.616,11.028 -31.556,11.09 -31.519,11.209C-31.458,11.403 -31.278,11.453 -31.102,11.478C-30.882,11.523 -30.825,11.273 -30.662,11.172C-30.617,11.448 -30.289,11.491 -30.13,11.727C-30.008,10.366 -31.812,10.861 -31.4,9.962C-31.239,10.509 -30.727,10.39 -30.369,10.613C-30.231,10.841 -29.892,11.03 -29.72,10.714C-29.55,10.84 -29.399,10.954 -29.251,11.066C-29.604,9.448 -30.441,10.449 -30.968,9.601C-30.6,9.617 -30.208,10.162 -29.811,9.79C-29.599,10.009 -29.433,10.267 -29.272,10.527C-29.207,10.009 -29.401,9.615 -29.808,9.329C-30.267,9.047 -30.889,9.547 -31.281,8.986C-31.816,8.325 -31.802,7.397 -31.522,6.632C-31.266,6.042 -30.553,5.823 -30.224,5.264C-30.316,5.757 -30.27,6.614 -29.712,6.773C-29.847,5.858 -29.197,5.035 -29.065,4.151C-28.896,3.928 -28.888,3.752 -29.041,3.513C-29.318,3.059 -29.394,2.512 -29.7,2.062C-30.176,1.396 -30.76,1.379 -29.791,0.677C-30.381,1.589 -29.9,1.256 -29.393,2.118C-29.298,1.828 -28.865,1.449 -29.406,1.45C-30.26,1.033 -28.295,-0.056 -27.853,-0.085C-27.415,-0.117 -26.801,-0.069 -26.469,-0.503C-26.677,-0.897 -26.878,-0.953 -26.524,-1.361C-26.764,-1.501 -26.974,-1.667 -27.014,-1.981C-27.242,-1.902 -27.442,-1.832 -27.678,-1.75C-27.464,-1.993 -26.832,-2.484 -26.764,-1.941C-26.749,-1.635 -26.446,-1.579 -26.21,-1.503C-26.381,-1.254 -26.668,-1 -26.407,-0.708C-26.225,-0.518 -26.111,-0.155 -25.831,-0.109C-25.754,-0.391 -25.681,-0.664 -25.606,-0.944C-24.986,-0.293 -26.231,0.071 -24.524,0.656C-24.585,0.303 -24.641,-0.038 -24.595,-0.401C-23.773,0.286 -24.95,0.718 -23.055,0.942C-23.265,0.692 -23.314,0.415 -23.392,0.135C-23.076,0.185 -22.821,0.49 -22.617,0.714C-22.42,1.012 -22.277,1.173 -21.831,0.885C-21.812,0.936 -21.807,1.007 -21.769,1.037C-21.569,1.188 -21.649,1.374 -21.654,1.577L-21.598,1.577C-21.335,1.31 -21.317,1.006 -21.398,0.672C-21.582,0.045 -22.347,0.545 -22.616,-0.096C-22.254,0.151 -21.895,0.293 -21.497,0.088C-21.274,0.296 -21.182,0.451 -21.074,0.747C-20.892,0.071 -21.1,-0.619 -21.815,-0.415C-22.038,-0.337 -22.127,-0.355 -22.35,-0.549C-22.02,-0.435 -21.802,-0.603 -21.59,-0.756C-21.543,-0.697 -21.517,-0.629 -21.486,-0.627C-21.286,-0.616 -21.154,-0.493 -21.03,-0.345C-20.964,-0.925 -21.538,-1.392 -22.118,-1.246C-22.263,-0.536 -22.858,-0.936 -23.329,-1.031C-24.061,-1.46 -24.447,-2.282 -25.095,-2.818C-25.03,-3.612 -25.692,-4.246 -26.488,-4.2C-25.771,-4.513 -24.919,-3.897 -24.864,-3.149C-24.836,-2.842 -24.651,-2.649 -24.455,-2.421C-22.033,-7.295 -14.208,-8.569 -9.717,-5.476C-9.334,-5.125 -8.917,-4.838 -8.52,-4.47C-8.367,-4.934 -8.458,-5.489 -7.763,-5.206L-7.633,-5.296C-7.775,-5.688 -7.482,-6.134 -7.068,-6.162L-7.068,-5.856C-7.249,-5.826 -7.39,-5.651 -7.36,-5.463C-7.223,-5.493 -7.096,-5.309 -7.171,-5.19C-7.042,-5.117 -6.858,-5.148 -6.759,-5.252C-6.643,-5.247 -6.528,-5.235 -6.412,-5.224C-6.572,-4.848 -7.12,-4.721 -7.428,-4.996L-7.428,-4.994C-7.369,-4.913 -7.635,-4.085 -7.646,-3.985C-7.679,-3.865 -7.791,-3.785 -7.911,-3.792C-7.863,-3.71 -7.82,-3.643 -7.776,-3.57C-7.579,-3.679 -7.304,-3.674 -7.33,-3.951C-7.293,-4.111 -7.394,-4.837 -7.169,-4.771C-7.078,-4.496 -7.25,-4.177 -7.045,-3.904C-6.397,-4.065 -6.681,-4.651 -5.896,-4.804C-5.584,-4.832 -4.924,-4.983 -4.757,-4.672C-5.444,-4.856 -6.331,-4.667 -6.48,-3.883C-7.195,-3.715 -7.796,-3.204 -8.556,-3.205C-9.16,-3.171 -9.323,-2.447 -9.349,-1.949C-9.45,-1.379 -9.481,-0.786 -9.735,-0.256C-9.86,-0.054 -9.754,0.179 -9.686,0.366C-9.455,0.49 -9.29,1.292 -9.256,1.577C-9.258,2.103 -8.359,2.277 -7.994,2.603C-7.892,1.947 -9.135,2.132 -8.961,1.217C-8.74,1.823 -8.258,1.948 -7.729,2.248C-7.893,1.634 -7.944,0.612 -8.8,0.739C-9.131,0.28 -8.647,0.254 -8.803,-0.295C-8.558,-0.217 -8.442,-0.13 -8.375,0.021C-8.452,-0.003 -8.519,-0.025 -8.624,-0.057C-8.595,0.33 -8.26,0.423 -8.001,0.69C-8.043,0.053 -8.1,-0.349 -8.693,-0.66C-9.028,-0.967 -8.641,-1.674 -8.663,-2.099C-8.675,-2.222 -7.871,-2.623 -7.749,-2.587C-7.154,-2.509 -6.529,-2.605 -5.953,-2.455C-5.38,-2.273 -5.872,-3.521 -4.945,-2.865C-5.616,-3.062 -5.207,-2.328 -5.693,-2.291C-6.033,-2.287 -6.319,-2.32 -6.674,-2.331C-5.453,0.384 -2.748,-0.412 -2.002,2.01C-1.38,1.46 -1.804,1.47 -1.978,0.895C-0.573,1.833 -3.288,2.919 -2.268,4.561C-2.333,4.375 -1.695,3.607 -1.621,3.451C-1.506,3.277 -1.307,3.267 -1.18,3.392L-0.977,2.969C-1.356,2.762 -0.671,1.873 -0.62,1.623C-0.55,1.47 -0.389,1.398 -0.262,1.46L-0.073,0.934C-0.431,0.838 -0.163,-0.03 -0.192,-0.272C-0.693,-0.726 -1.105,-1.296 -1.496,-1.822L-1.255,-1.864C-1.283,-1.745 -1.239,-1.615 -1.138,-1.545C-0.965,-1.477 -0.304,-0.84 -0.098,-0.992L0.007,-0.71C-0.16,-0.664 -0.189,-0.43 -0.192,-0.272C-0.101,-0.196 -0.007,-0.126 0.08,-0.049C0.093,-0.104 0.083,-0.363 0.135,-0.401C0.213,-0.298 0.357,-0.298 0.443,-0.381C0.524,-0.337 0.422,0.223 0.433,0.293C0.529,0.4 0.622,0.509 0.71,0.623C0.672,0.364 0.988,-0.619 0.55,-0.666" style="fill-rule:nonzero;"/>
            </g>
            <g transform="matrix(8.96408,0,0,8.96408,339.422,222.779)">
                <path d="M0,-0.552C-0.05,-0.612 -0.063,-0.698 -0.02,-0.762C-0.099,-0.78 -0.234,-0.033 -0.26,0.011C-0.207,0.063 -0.16,0.114 -0.114,0.166C-0.044,0.187 0.075,0.228 0.099,0.125L0.27,-0.534C0.19,-0.462 0.064,-0.456 0,-0.552" style="fill-rule:nonzero;"/>
            </g>
            <g transform="matrix(8.96408,0,0,8.96408,249.924,395.005)">
                <path d="M0,-1.089C-1.875,-1.831 -3.239,-0.015 -1.708,0.293C-3.389,0.366 -3.064,-2.001 -3.757,-1.859C-3.15,-1.203 -3.15,0.016 -2.59,0.355C-1.46,0.834 -0.287,0.912 0.923,0.855C0.314,0.314 0.166,-0.366 0,-1.089" style="fill-rule:nonzero;"/>
            </g>
            <g transform="matrix(8.96408,0,0,8.96408,301.268,382.41)">
                <path d="M0,1.672C1.529,1.368 0.174,-0.452 -1.708,0.29C-1.874,1.014 -2.022,1.695 -2.631,2.235C-1.421,2.292 -0.247,2.212 0.882,1.734C1.442,1.395 1.442,0.176 2.049,-0.478C1.356,-0.62 1.682,1.745 0,1.672" style="fill-rule:nonzero;"/>
            </g>
            <g transform="matrix(8.96408,0,0,8.96408,411.493,261.667)">
                <path d="M0,0.472C-0.002,0.508 0.011,0.542 0.034,0.566C0.119,0.493 0.252,0.522 0.314,0.609C0.412,0.581 0.379,0.278 0.4,0.205C0.29,0.086 0.173,-0.029 0.049,-0.137L0,0.472Z" style="fill-rule:nonzero;"/>
            </g>
            <g transform="matrix(8.96408,0,0,8.96408,407.267,276.666)">
                <path d="M0,1.048C0.01,0.962 0.483,0.18 0.36,0.112C0.273,0.13 0.174,0.083 0.138,0C0.024,-0.046 -0.275,0.805 -0.327,0.859C-0.177,0.765 0.013,0.919 -0.037,1.094C-0.023,1.082 -0.008,1.069 0,1.048" style="fill-rule:nonzero;"/>
            </g>
            <g transform="matrix(8.96408,0,0,8.96408,455.342,301.019)">
                <path d="M0,-5.271C-0.392,-5.152 -0.553,-4.825 -0.702,-4.454C-1.688,-5.992 -3.563,-7.055 -3.848,-8.937C-3.629,-10.441 -1.634,-10.098 -2.038,-8.528C-1.004,-9.085 -1.504,-10.12 -2.478,-10.303C-1.419,-10.218 -0.842,-9.323 -0.117,-10.811C-0.744,-10.583 -1.698,-10.744 -2.027,-10.793C-0.708,-10.972 0.008,-10.96 -0.033,-12.596C-0.48,-11.616 -1.724,-11.597 -2.627,-11.279C-2.569,-11.714 -2.706,-11.983 -3.056,-12.123C-2.697,-9.731 -7.233,-10.511 -2.25,-5.349C-2.86,-5.686 -3.572,-5.574 -4.164,-5.948C-3.702,-4.706 -2.924,-4.921 -1.905,-4.488C-2.999,-4.493 -3.337,-3.427 -2.528,-2.914C-2.74,-3.739 -1.607,-4.306 -1.04,-3.661C0.254,-1.999 -2.113,0.309 -4.215,-3.856C-4.2,-3.625 -4.359,-3.418 -4.584,-3.488L-4.82,-2.829C-4.34,-2.652 -5.077,-1.722 -5.128,-1.455C-5.212,-1.278 -5.398,-1.224 -5.54,-1.32L-5.771,-0.838C-5.479,-0.571 -6.262,0.186 -6.35,0.42C-6.441,0.555 -6.604,0.601 -6.718,0.529L-6.803,0.705C-6.785,0.728 -6.774,0.739 -6.772,0.739C-6.24,1.367 -5.997,1.851 -6.14,2.518C-5.709,2.15 -5.517,1.126 -5.862,0.568C-5.471,0.975 -4.906,1.266 -4.682,1.784C-4.459,2.73 -4.631,3.666 -5.271,4.411C-5.543,4.685 -5.471,4.83 -5.505,5.165C-5.686,5.697 -6.324,5.741 -6.564,6.192C-6.733,6.588 -7.011,6.91 -7.132,7.325C-6.411,7.213 -6.534,6.204 -5.849,6C-6.127,6.424 -6.396,6.808 -6.585,7.299C-6.015,7.15 -4.936,6.995 -5.116,6.189C-5.251,5.818 -4.89,5.572 -4.91,5.217C-4.457,5.054 -4.561,4.872 -4.345,4.519C-4.244,4.734 -4.239,4.913 -4.252,5.144C-4.307,5.028 -4.341,4.957 -4.382,4.872C-4.703,5.308 -4.436,5.732 -4.48,6.196C-2.904,4.783 -4.998,4.794 -3.36,1.662C-2.984,1.039 -4.433,1.109 -4.54,-0.301C-4.641,-0.91 -4.105,-1.408 -3.992,-1.989C-3.362,-0.869 -1.159,-0.907 -1.46,0.527C-1.017,0.19 -1.035,-0.422 -1.211,-0.881C1.061,-1.699 -0.731,-3.79 0,-5.271" style="fill-rule:nonzero;"/>
            </g>
            <g transform="matrix(8.96408,0,0,8.96408,394.699,294.263)">
                <path d="M0,0.867C0.05,0.89 0.096,0.924 0.114,0.978C0.15,0.983 0.19,0.966 0.216,0.927C0.233,0.874 0.793,0.139 0.729,0.087C0.667,0.069 0.61,0.025 0.591,-0.04C0.539,-0.092 0.461,-0.116 0.407,-0.038C0.387,0.056 -0.238,0.761 -0.077,0.851C-0.05,0.849 -0.024,0.854 0,0.867" style="fill-rule:nonzero;"/>
            </g>
            <g transform="matrix(8.96408,0,0,8.96408,391.763,303.768)">
                <path d="M0,-0.047L0.029,0L0.037,-0.019L0,-0.047Z" style="fill-rule:nonzero;"/>
            </g>
            <g transform="matrix(8.96408,0,0,8.96408,194.619,286.361)">
                <path d="M0,5.079C0.228,5.12 0.48,5.165 0.7,5.064C0.358,4.48 0.02,3.905 -0.33,3.308C-0.941,4.06 -2.001,3.603 -2.666,3.14C-3.208,2.74 -2.038,2.118 -2.414,0.785C-1.893,1.626 -2.841,2.354 -1.377,2.824C-1.8,2.196 -1.743,1.384 -1.901,0.664C-1.921,0.541 -1.981,0.417 -1.882,0.291C-1.833,0.119 -1.822,-0.114 -2.056,-0.14C-3.69,-1.078 -3.36,-0.623 -4.952,-0.842C-5.343,-0.151 -4.512,0.464 -4.644,1.14C-4.76,1.47 -4.26,1.455 -4.265,1.779C-4.154,2.281 -4.208,2.986 -4.783,3.179C-5.068,3.35 -4.84,3.715 -4.591,3.801C-5.097,4.713 -4.709,4.859 -3.935,5.317C-3.93,4.965 -3.923,4.656 -3.777,4.358C-2.707,5.066 -4.301,5.185 -2.181,6.046C-2.396,5.691 -2.39,5.305 -2.422,4.95C-2.222,4.996 -2.027,5.043 -1.828,5.09C-1.597,6.07 -1.066,6.157 -0.132,6.069C-0.466,5.737 -0.56,5.305 -0.804,4.959C-0.521,5.053 -0.241,4.861 0,5.079" style="fill-rule:nonzero;"/>
            </g>
            <g transform="matrix(8.96408,0,0,8.96408,365.772,322.868)">
                <path d="M0,-4.459C-0.29,-4.413 -0.357,-4.29 -0.303,-4.008C-0.627,-3.31 -0.635,-2.46 -1.187,-1.871C0,-2.206 -0.262,-2.657 0.028,-3.559C-0.033,-2.335 0.033,-2.351 0.475,-1.513C-0.441,-0.87 -1.936,-1.408 -2.439,-0.158C-2.299,0 -2.119,-0.161 -1.934,-0.118C-2.054,0.026 -2.102,0.197 -2.292,0.322C-2.251,0.202 -2.225,0.125 -2.199,0.052C-2.543,-0.064 -2.824,0.722 -3.08,0.975C-0.633,0.482 -3.376,-0.236 1.446,-0.798C2.299,-1.198 0.64,-1.828 2.313,-2.886C2.463,-3.466 2.552,-4.062 2.867,-4.584C2.942,-4.755 2.823,-4.996 2.666,-5.117C1.932,-4.601 1.584,-5.434 0,-4.459" style="fill-rule:nonzero;"/>
            </g>
            <g transform="matrix(8.96408,0,0,8.96408,144.387,181.786)">
                <path d="M0,1.224C0.011,1.061 0.021,0.907 0.033,0.732C-0.151,0.701 -0.321,0.672 -0.51,0.64C-0.288,0.472 -0.02,0.431 0.199,0.514C0.011,1.305 0.345,1.861 1.19,1.904C1.449,1.52 1.678,1.462 1.931,1.732C0.816,1.618 1.643,2.797 2.212,2.398C2.364,2.178 2.845,1.986 2.706,1.678C1.822,1.032 1.882,1.984 1.717,0.389C1.682,0.386 1.641,0.382 1.605,0.379C1.524,0.682 1.224,0.918 0.982,0.631C0.897,0.535 0.822,0.448 0.684,0.423C1.289,-0.06 2.009,0.636 1.966,-0.5C2.64,0.347 2.699,-0.593 3.366,-0.607C3.335,0.063 3.197,0.011 2.621,-0.026C2.81,0.117 3.529,0.835 3.109,0.903C2.935,0.454 2.64,0.018 2.142,-0.072C1.74,0.329 1.937,0.78 2.001,1.242C2.357,1.12 2.662,0.889 3.039,0.918C3.166,1.287 2.574,1.493 2.909,1.859C3.485,1.952 4.109,1.955 3.926,1.141C3.739,1.029 3.554,0.952 3.358,1.157C3.368,0.841 3.677,0.786 3.918,0.848C4.451,0.281 4.273,-0.466 3.702,-0.92C3.853,-1.141 4.013,-1.296 4.286,-1.35C4.193,-1.159 4,-1.088 3.956,-0.913C4.083,-0.759 4.202,-0.612 4.319,-0.469C4.625,-0.604 4.704,-1.083 4.486,-1.573C4.109,-1.475 3.446,-1.162 3.446,-1.162C3.121,-1.286 3.261,-1.127 3.306,-0.969C2.268,-0.778 1.249,-0.505 0.423,0.184C0.275,0.291 0.207,0.226 0.16,0.016C0.06,-0.134 0.015,0.125 0.002,0.19C0.002,0.19 -0.622,0.342 -0.895,0.574C-0.703,0.892 -0.431,1.392 0,1.224" style="fill-rule:nonzero;"/>
            </g>
            <g transform="matrix(8.96408,0,0,8.96408,180.932,208.624)">
                <path d="M0,-2.084C0.096,-1.614 -0.037,-1.221 -0.345,-0.853C0.117,-0.026 0.899,0.6 1.245,1.494C2.017,0.052 1.192,-0.432 0.132,-1.221C0.812,-0.977 1.499,-0.743 1.877,-0.095C1.958,-1.332 1.41,-1.949 0.21,-2.139C0.213,-2.156 0.218,-2.174 0.221,-2.19C0.721,-2.213 1.219,-2.213 1.688,-1.907C1.563,-2.289 1.253,-2.857 0.799,-2.807C0.962,-3.147 0.959,-3.373 0.796,-3.578C0.718,-3.339 0.568,-3.193 0.322,-3.183C0.374,-2.755 0.234,-2.4 0,-2.084" style="fill-rule:nonzero;"/>
            </g>
            <g transform="matrix(8.96408,0,0,8.96408,146.702,210.704)">
                <path d="M0,0.501C0.142,0.846 0.355,1.247 0.707,1.391C0.524,0.709 0.985,0.117 1.2,-0.498C1.203,0.921 0.397,1.689 2.342,2.212C1.825,1.377 2.168,0.363 1.839,-0.497C1.527,-0.676 1.174,-0.72 0.962,-0.984C0.903,-1.106 0.798,-1.153 0.685,-1.177C0.319,-1.257 -0.02,-1.378 -0.203,-1.682C-0.47,-1.597 -0.632,-1.609 -0.877,-1.711C-0.899,-1.408 -0.641,-1.102 -0.301,-1.22C-0.573,-0.821 -0.422,-0.466 -0.322,-0.056C-0.129,-0.464 0.169,-0.712 0.505,-0.918C0.249,-0.482 -0.207,-0.044 0,0.501" style="fill-rule:nonzero;"/>
            </g>
            <g transform="matrix(8.40341,-3.12047,-3.12047,-8.40341,229.645,337.005)">
                <path d="M-1.66,-0.354C-1.328,-0.217 -1.613,0.042 -1.681,0.269C-3.122,3.135 -2.951,6.105 -1.66,8.994C-1.704,9.039 -1.759,9.098 -1.846,9.193C-3.381,6.191 -3.347,2.576 -1.66,-0.354" style="fill-rule:nonzero;"/>
            </g>
            <g transform="matrix(-8.93759,-0.688588,-0.688588,8.93759,413.918,203.218)">
                <path d="M1.189,-2.272C1.379,-1.825 0.722,-1.696 0.683,-1.291C0.863,-1.413 1.017,-1.516 1.189,-1.634C1.332,-0.823 0.375,-0.64 0.036,-0.036C-0.251,-1.224 0.007,-1.913 1.189,-2.272" style="fill-rule:nonzero;"/>
            </g>
            <g transform="matrix(8.96408,0,0,8.96408,173.443,204.963)">
                <path d="M0,0.879C-0.623,0.916 -0.532,0.133 -0.715,-0.304C-0.827,-0.176 -0.921,-0.07 -1.022,0.046C-0.894,0.479 -0.765,0.915 -0.628,1.379C-0.524,1.304 -0.438,1.242 -0.345,1.177C0.09,1.483 0.487,1.271 0.63,0.793C0.759,0.825 0.876,0.881 0.969,0.786C0.765,0.366 0.57,-0.039 0.37,-0.453C0.244,-0.428 0.127,-0.604 -0.021,-0.464C0.117,-0.077 0.632,0.698 0,0.879" style="fill-rule:nonzero;"/>
            </g>
            <g transform="matrix(8.96408,0,0,8.96408,403.777,159.49)">
                <path d="M0,0.573L-0.01,0.625C-0.205,0.615 -0.4,0.604 -0.606,0.594C-0.386,1.297 0.431,0.957 0.946,1.278C0.65,0.713 0.438,0.161 -0.249,0.052C-0.176,-0.283 -0.267,-0.599 -0.475,-0.724C-0.472,-0.43 -0.594,-0.215 -0.863,-0.104C-0.995,0.479 -0.387,0.449 0,0.573" style="fill-rule:nonzero;"/>
            </g>
            <g transform="matrix(8.96408,0,0,8.96408,402.18,209.667)">
                <path d="M0,-0.969C-0.016,-0.966 -0.033,-0.964 -0.047,-0.961C-0.189,-0.339 0.243,0.208 0.513,0.737C0.983,-0.098 0.964,-1.046 0.213,-1.706C-0.016,-1.264 0.304,-0.84 0.417,-0.42C0.402,-0.414 0.386,-0.407 0.37,-0.401L0,-0.969Z" style="fill-rule:nonzero;"/>
            </g>
            <g transform="matrix(-8.07293,3.89647,3.89647,8.07293,418.015,180.853)">
                <path d="M1.198,-1.98C1.234,-1.287 0.78,-1.24 0.71,-0.742C0.889,-0.913 1.043,-1.062 1.198,-1.212C1.505,-0.605 0.766,-0.168 0.453,0.274C0.043,-0.752 0.343,-1.36 1.198,-1.98" style="fill-rule:nonzero;"/>
            </g>
            <g transform="matrix(8.96408,0,0,8.96408,378.511,152.718)">
                <path d="M0,0.723C0.293,0.723 0.713,0.91 0.956,0.741C0.962,-0.187 -0.171,-0.065 -0.814,-0.084C-0.622,0.264 -0.378,0.606 0,0.723" style="fill-rule:nonzero;"/>
            </g>
            <g transform="matrix(8.96408,0,0,8.96408,349.647,293.444)">
                <path d="M0,-1.741C-0.241,-1.762 -0.469,-1.778 -0.733,-1.8C-0.721,-1.669 -0.715,-1.572 -0.706,-1.469C-0.56,-1.433 -0.435,-1.401 -0.301,-1.368C-0.26,-0.605 -0.682,-0.59 -1.252,-0.911C-1.421,0.059 0.14,-0.038 0,-1.741" style="fill-rule:nonzero;"/>
            </g>
            <g transform="matrix(8.96408,0,0,8.96408,344.802,264.992)">
                <path d="M0,-1.662C-0.863,-0.607 -0.871,-0.453 0.444,0C0.433,-0.119 0.425,-0.197 0.415,-0.286C0.158,-0.363 -0.094,-0.459 -0.324,-0.612C-0.158,-0.817 -0.003,-1.011 0.156,-1.208C0.109,-1.343 0.062,-1.483 0,-1.662" style="fill-rule:nonzero;"/>
            </g>
            <g transform="matrix(8.96408,0,0,8.96408,308.777,208.744)">
                <path d="M0,0.765C0.143,0.754 0.272,0.744 0.397,0.732C0.536,0.218 0.243,0.161 -0.111,-0.116C-0.252,0.312 -0.63,0.521 -0.845,0.881C-0.498,0.858 -0.3,0.745 -0.101,0.475C-0.065,0.578 -0.033,0.671 0,0.765" style="fill-rule:nonzero;"/>
            </g>
            <g transform="matrix(8.95726,-0.349397,-0.349397,-8.95726,326.823,236.679)">
                <path d="M-0.028,0.014C0.11,0.348 0.79,1.158 0.451,1.434C0.286,1.346 -0.051,1.4 -0.028,1.143C-0.045,0.772 -0.059,0.402 -0.073,0.029C-0.058,0.025 -0.043,0.02 -0.028,0.014" style="fill-rule:nonzero;"/>
            </g>
            <g transform="matrix(8.96408,0,0,8.96408,384.461,145.209)">
                <path d="M0,0.687C0.013,0.667 0.028,0.65 0.039,0.63C-0.326,0.111 -0.482,0.003 -1.125,0C-1.115,0.63 -0.461,0.632 0,0.687" style="fill-rule:nonzero;"/>
            </g>
            <g transform="matrix(8.96408,0,0,8.96408,369.704,143.442)">
                <path d="M0,-0.676C-0.024,-0.232 0.348,0.026 0.967,-0.007C0.806,-0.458 0.487,-0.702 0,-0.676" style="fill-rule:nonzero;"/>
            </g>
            <g transform="matrix(8.96408,0,0,8.96408,356.715,182.646)">
                <path d="M0,-0.422C-0.505,-0.656 -0.915,-0.357 -1.421,-0.469C-1.278,0.234 -0.441,-0.279 0,-0.422" style="fill-rule:nonzero;"/>
            </g>
            <g transform="matrix(8.96408,0,0,8.96408,365.322,135.556)">
                <path d="M0,-0.507C0.13,-0.058 0.304,0.037 0.767,-0.028C0.62,-0.396 0.383,-0.544 0,-0.507" style="fill-rule:nonzero;"/>
            </g>
            <g transform="matrix(8.96408,0,0,8.96408,367.539,126.225)">
                <path d="M0,0.302C-0.177,-0.081 -0.272,-0.129 -0.648,-0.089C-0.493,0.289 -0.269,0.431 0,0.302" style="fill-rule:nonzero;"/>
            </g>
            <g transform="matrix(-1.52306,8.83374,8.83374,1.52306,353.688,239.739)">
                <path d="M0.198,-0.737C0.38,-0.584 0.562,-0.432 0.738,-0.284C0.659,0.174 0.344,-0.281 0.198,-0.413C0.145,-0.485 0.166,-0.612 0.155,-0.713C0.169,-0.722 0.184,-0.729 0.198,-0.737" style="fill-rule:nonzero;"/>
            </g>
            <g transform="matrix(8.96408,0,0,8.96408,334.899,239.666)">
                <path d="M0,0.614C0.236,0.479 0.482,0.373 0.695,0.202C0.645,0.131 0.609,0.078 0.553,0C0.35,0.201 -0.13,0.266 0,0.614" style="fill-rule:nonzero;"/>
            </g>
            <g transform="matrix(8.96408,0,0,8.96408,362.509,118.64)">
                <path d="M0,0.528C0.067,0.285 -0.28,-0.037 -0.527,0.061C-0.495,0.329 -0.213,0.565 0,0.528" style="fill-rule:nonzero;"/>
            </g>
            <g transform="matrix(8.96408,0,0,8.96408,153.877,158.889)">
                <path d="M0,0.192C0.129,0.073 -0.065,-0.124 -0.189,-0.002C-0.319,0.119 -0.125,0.316 0,0.192" style="fill-rule:nonzero;"/>
            </g>
            <g transform="matrix(8.96408,0,0,8.96408,155.396,162.075)">
                <path d="M0,0.191C0.129,0.072 -0.067,-0.125 -0.19,-0.003C-0.319,0.118 -0.125,0.316 0,0.191" style="fill-rule:nonzero;"/>
            </g>
            <g transform="matrix(8.96408,0,0,8.96408,147.452,155.743)">
                <path d="M0,-0.701L-0.306,-0.678L-0.147,-0.276L0.068,-0.528C0.081,-0.52 0.094,-0.514 0.109,-0.511C0.109,-0.507 0.14,0.023 0.14,0.027C0.195,0.497 0.912,0.207 0.625,-0.169L0.28,-0.579C0.288,-0.592 0.295,-0.605 0.298,-0.62L0.628,-0.584L0.469,-0.986L0.23,-0.792C0.218,-0.799 0.203,-0.804 0.19,-0.808L0.163,-1.198C0.065,-1.158 -0.132,-1.079 -0.231,-1.04L0.016,-0.738C0.01,-0.727 0.003,-0.714 0,-0.701" style="fill-rule:nonzero;"/>
            </g>
            <g transform="matrix(8.96408,0,0,8.96408,139.592,165.557)">
                <path d="M0,0.304C0.2,0.309 0.203,0 0.005,0C-0.192,-0.005 -0.197,0.304 0,0.304" style="fill-rule:nonzero;"/>
            </g>
            <g transform="matrix(8.96408,0,0,8.96408,139.308,169.121)">
                <path d="M0,0.304C0.199,0.309 0.203,0 0.003,0C-0.192,-0.005 -0.197,0.304 0,0.304" style="fill-rule:nonzero;"/>
            </g>
            <g transform="matrix(8.96408,0,0,8.96408,145.007,156.937)">
                <path d="M0,0.304C0.199,0.309 0.203,0 0.003,0C-0.192,-0.005 -0.197,0.304 0,0.304" style="fill-rule:nonzero;"/>
            </g>
            <g transform="matrix(8.96408,0,0,8.96408,140.724,162.317)">
                <path d="M0,0.304C0.199,0.309 0.203,0 0.003,0C-0.192,-0.005 -0.197,0.304 0,0.304" style="fill-rule:nonzero;"/>
            </g>
            <g transform="matrix(8.96408,0,0,8.96408,157.311,173.424)">
                <path d="M0,-0.556C-0.01,-0.707 0.101,-1.009 0.101,-1.009C-0.054,-0.947 -0.37,-0.823 -0.524,-0.759C-0.524,-0.759 -0.238,-0.618 -0.14,-0.501C-0.272,-0.453 -0.399,-0.431 -0.581,-0.515L-0.339,-0.032C-0.286,-0.245 -0.176,-0.372 -0.093,-0.388C0.169,0.015 -0.483,0.46 -0.767,0.115C-0.848,-0.03 -0.75,-0.186 -0.583,-0.066C-0.609,-0.366 -0.868,-0.364 -0.946,-0.143C-0.939,-0.45 -1.017,-0.636 -1.338,-0.725C-1.423,-0.421 -1.32,-0.235 -1.014,-0.103C-1.187,-0.125 -1.377,0.046 -1.139,0.261C-1.138,0.067 -0.975,0.046 -0.887,0.177C-0.749,0.535 -1.169,0.673 -1.516,0.31C-1.437,0.281 -1.356,0.292 -1.247,0.318L-1.576,-0.097C-1.56,0.05 -1.569,0.154 -1.599,0.22C-1.67,0.137 -1.693,0.067 -1.722,-0.092L-1.973,0.128C-1.734,0.277 -1.465,0.515 -1.135,0.986C-0.698,0.556 1.063,-0.182 1.743,-0.159C1.66,-0.729 1.693,-1.085 1.763,-1.36L1.429,-1.347C1.519,-1.21 1.55,-1.142 1.556,-1.035C1.489,-1.062 1.408,-1.131 1.32,-1.249L1.366,-0.722C1.428,-0.815 1.48,-0.88 1.555,-0.913C1.555,-0.411 1.153,-0.222 1.009,-0.577C0.983,-0.732 1.115,-0.828 1.25,-0.689C1.275,-1.009 1.019,-1.004 0.907,-0.867C1.04,-1.173 0.986,-1.378 0.716,-1.542C0.544,-1.256 0.615,-1.067 0.832,-0.849C0.622,-0.958 0.433,-0.779 0.62,-0.545C0.659,-0.748 0.838,-0.701 0.877,-0.54C0.91,-0.094 0.129,0.032 0.042,-0.442C0.114,-0.488 0.282,-0.471 0.466,-0.353L0.311,-0.869C0.236,-0.685 0.129,-0.611 0,-0.556" style="fill-rule:nonzero;"/>
            </g>
            <g transform="matrix(8.96408,0,0,8.96408,231.312,287.163)">
                <path d="M0,3.136C0.236,3.273 0.5,3.424 0.739,3.561C0.15,4.275 1.206,4.586 1.149,3.886C1.543,4.056 3.095,4.533 2.473,3.605C0.438,3.673 -0.601,1.536 0.526,-0.097C1.211,0.216 3.617,-0.955 3.417,0.237C3.542,0.37 3.578,0.382 3.865,0.38C4.56,-1.222 2.163,-0.743 1.302,-0.556C0.536,-0.328 -0.171,-1.45 -0.848,-0.836C-1.118,-0.597 -0.943,-0.066 -0.576,-0.05C-0.251,-0.04 -0.16,-0.486 -0.448,-0.626C0.184,-0.838 -0.12,0.177 -0.348,0.435C-1.074,0.061 -1.193,1.23 -0.475,0.924C-0.444,1.132 -0.436,1.339 -0.485,1.539C-1.268,1.37 -1.06,2.491 -0.474,2.04C-0.304,2.202 -0.226,2.451 -0.207,2.692C-0.991,2.802 -0.365,3.81 0,3.136" style="fill-rule:nonzero;"/>
            </g>
            <g transform="matrix(8.96408,0,0,8.96408,251.699,294.127)">
                <path d="M0,3.58C-0.033,3.567 -0.067,3.557 -0.109,3.544C-0.164,3.691 -0.247,3.959 -0.117,4.054L0.542,4.335L1.39,3.707L1.62,0.306L1.369,0.326C1.302,0.334 0.84,4.252 0.599,4.023C0.648,3.764 1.211,0.326 1.211,0.326C1.211,0.326 1.043,0.302 0.962,0.29C0.947,0.37 0.93,0.472 0.93,0.472L-0.005,-0.755L-0.129,-0.698L0.873,0.621L0.809,0.852C0.716,0.793 -0.249,-0.548 -0.347,-0.674L-0.542,-0.688L0.759,1.01L0.69,1.238L-0.77,-0.68L-0.957,-0.683L0.623,1.399L0.54,1.7L-1.195,-0.659L-1.424,-0.654L0.495,1.879L0.425,2.115L-1.695,-0.656L-1.729,-0.442C-1.729,-0.442 0.241,2.151 0.363,2.322C0.262,2.641 0.34,2.667 0.479,2.932C0.555,3.227 0.35,3.687 0,3.58" style="fill-rule:nonzero;"/>
            </g>
            <g transform="matrix(-5.39887,-7.1559,-7.1559,5.39887,247.895,290.27)">
                <path d="M-2.715,1.267L0.652,1.267C0.652,1.267 0.574,1.375 0.54,1.422C0.291,1.419 -2.685,1.42 -2.685,1.42L-2.715,1.267Z" style="fill-rule:nonzero;"/>
            </g>
            <g transform="matrix(-6.79478,5.84685,5.84685,6.79478,251.192,307.87)">
                <path d="M0.816,-1.777C0.847,-1.021 0.894,-0.263 0.939,0.49C0.894,0.54 0.816,0.644 0.816,0.644L0.637,-2.099C0.637,-2.099 0.805,-1.948 0.816,-1.777" style="fill-rule:nonzero;"/>
            </g>
            <g transform="matrix(8.96408,0,0,8.96408,266.953,295.736)">
                <path d="M0,-0.461C-0.225,-0.479 -0.462,-0.523 -0.682,-0.544C-1.109,-0.173 -0.628,0.04 -0.309,0.011C-0.036,0.083 0.327,-0.28 0,-0.461" style="fill-rule:nonzero;"/>
            </g>
            <g transform="matrix(8.96408,0,0,8.96408,266.34,378.451)">
                <path d="M0,-0.096C-0.067,0.208 0.41,0.304 0.469,-0C0.536,-0.303 0.057,-0.4 0,-0.096" style="fill-rule:nonzero;"/>
            </g>
            <g transform="matrix(8.96408,0,0,8.96408,270.188,360.183)">
                <path d="M0,0.12C0.083,-0.256 -0.51,-0.378 -0.581,0.001C-0.664,0.376 -0.072,0.498 0,0.12" style="fill-rule:nonzero;"/>
            </g>
            <g transform="matrix(8.96408,0,0,8.96408,252.047,351.196)">
                <path d="M0,0.118C0.083,-0.256 -0.51,-0.378 -0.581,0.001C-0.664,0.375 -0.072,0.496 0,0.118" style="fill-rule:nonzero;"/>
            </g>
            <g transform="matrix(8.96408,0,0,8.96408,283.769,404.976)">
                <path d="M0,-2.567C-0.337,-2.533 -0.511,-2.305 -0.69,-2.071C-0.848,-2.17 -1.056,-2.267 -1.25,-2.267C-1.356,-2.267 -1.455,-2.24 -1.543,-2.168C-0.923,-1.922 -1.146,-0.991 -1.747,-0.988C-2.347,-0.991 -2.569,-1.922 -1.95,-2.168C-2.036,-2.24 -2.137,-2.267 -2.242,-2.267C-2.437,-2.267 -2.645,-2.17 -2.803,-2.071C-2.981,-2.305 -3.155,-2.533 -3.493,-2.567C-3.308,-0.856 -2.526,0 -1.747,0C-0.965,0 -0.184,-0.856 0,-2.567M-0.282,-2.197C-0.523,-0.84 -1.17,-0.228 -1.747,-0.228C-2.323,-0.228 -2.969,-0.84 -3.21,-2.197C-3.137,-2.129 -3.067,-2.041 -2.984,-1.932L-2.859,-1.768L-2.681,-1.877C-2.606,-1.924 -2.533,-1.963 -2.465,-1.991C-2.541,-1.833 -2.567,-1.649 -2.531,-1.454C-2.455,-1.047 -2.132,-0.762 -1.745,-0.76C-1.359,-0.762 -1.037,-1.047 -0.96,-1.454C-0.925,-1.649 -0.951,-1.833 -1.029,-1.991C-0.96,-1.963 -0.886,-1.924 -0.811,-1.877L-0.635,-1.768L-0.508,-1.932C-0.426,-2.041 -0.357,-2.129 -0.282,-2.197" style="fill-rule:nonzero;"/>
            </g>
            <g transform="matrix(5.48548,-7.08972,-7.08972,-5.48548,234.806,336.394)">
                <path d="M-0.547,-0.27C-0.145,-0.284 -0.377,0.681 -0.321,0.892C-0.335,1.018 -0.431,1.114 -0.547,1.116C-0.94,1.137 -0.721,0.179 -0.778,-0.019C-0.776,-0.157 -0.674,-0.271 -0.547,-0.27" style="fill-rule:nonzero;"/>
            </g>
            <g transform="matrix(8.93038,0.776555,0.776555,-8.93038,232.072,347.54)">
                <path d="M0.069,-0.01C1.069,0.072 0.801,1.646 -0.169,1.39C0.308,1.185 0.761,0.565 0.069,0.314C-0.192,0.236 -0.491,0.501 -0.7,0.626C-0.66,0.239 -0.319,-0.043 0.069,-0.01" style="fill-rule:nonzero;"/>
            </g>
            <g transform="matrix(8.96408,0,0,8.96408,219.921,339.897)">
                <path d="M0,1.132C0.22,1.552 1.509,2.691 1.859,2.153C1.229,1.835 0.164,1.049 0.573,0.051C-0.352,-0.515 0.466,-1.422 1.185,-0.652C1.953,-1.127 2.806,-0.787 3.562,-0.261C3.834,-0.851 2.513,-1.256 2.206,-1.429C1.818,-1.559 0.593,-1.282 0.182,-1.264C-0.096,-1.228 -0.298,-0.979 -0.272,-0.699C-0.21,-0.4 -0.218,0.894 0,1.132" style="fill-rule:nonzero;"/>
            </g>
            <g transform="matrix(8.53934,2.7266,2.7266,-8.53934,316.209,152.994)">
                <path d="M0.444,0.619L1.042,0.619C-0.392,2.154 -2.398,3.008 -4.446,2.891C-4.452,2.75 -4.451,2.602 -4.444,2.445C-2.648,2.56 -0.885,1.874 0.444,0.619" style="fill-rule:nonzero;"/>
            </g>
            <g transform="matrix(8.53934,-2.7266,-2.7266,-8.53934,222.491,156.108)">
                <path d="M-0.472,0.801L0.126,0.801C1.455,2.058 3.218,2.742 5.013,2.629C5.021,2.784 5.022,2.933 5.016,3.073C2.968,3.19 0.964,2.335 -0.472,0.801" style="fill-rule:nonzero;"/>
            </g>
            <g transform="matrix(8.96408,0,0,8.96408,310.003,117.413)">
                <path d="M0,0.626C0.407,0.633 0.407,-0.007 0,-0.001C-0.407,-0.007 -0.407,0.633 0,0.626" style="fill-rule:nonzero;"/>
            </g>
            <g transform="matrix(8.96408,0,0,8.96408,297.099,110.066)">
                <path d="M0,0.626C0.407,0.633 0.407,-0.007 0,-0.002C-0.407,-0.007 -0.407,0.633 0,0.626" style="fill-rule:nonzero;"/>
            </g>
            <g transform="matrix(8.96408,0,0,8.96408,290.096,107.494)">
                <path d="M0,0.63C0.407,0.635 0.407,-0.005 0,0.002C-0.407,-0.005 -0.407,0.635 0,0.63" style="fill-rule:nonzero;"/>
            </g>
            <g transform="matrix(8.96408,0,0,8.96408,303.748,113.362)">
                <path d="M0,0.628C0.407,0.633 0.407,-0.005 0,0C-0.407,-0.005 -0.407,0.633 0,0.628" style="fill-rule:nonzero;"/>
            </g>
            <g transform="matrix(8.96408,0,0,8.96408,315.774,122.083)">
                <path d="M0,0.628C0.407,0.633 0.407,-0.005 0,0C-0.407,-0.005 -0.407,0.633 0,0.628" style="fill-rule:nonzero;"/>
            </g>
            <g transform="matrix(8.96408,0,0,8.96408,330.374,148.86)">
                <path d="M0,0C-0.007,0.407 0.633,0.407 0.627,0C0.633,-0.407 -0.007,-0.407 0,0" style="fill-rule:nonzero;"/>
            </g>
            <g transform="matrix(8.96408,0,0,8.96408,326.968,142.241)">
                <path d="M0,0C-0.005,0.407 0.633,0.407 0.628,0C0.633,-0.407 -0.005,-0.407 0,0" style="fill-rule:nonzero;"/>
            </g>
            <g transform="matrix(8.96408,0,0,8.96408,321.026,127.374)">
                <path d="M0,0.626C0.407,0.631 0.407,-0.007 0,-0.002C-0.407,-0.007 -0.407,0.633 0,0.626" style="fill-rule:nonzero;"/>
            </g>
            <g transform="matrix(8.96408,0,0,8.96408,322.899,135.979)">
                <path d="M0,0C-0.007,0.407 0.633,0.407 0.627,0C0.633,-0.407 -0.007,-0.407 0,0" style="fill-rule:nonzero;"/>
            </g>
            <g transform="matrix(8.96408,0,0,8.96408,233.067,117.413)">
                <path d="M0,0.626C0.407,0.633 0.407,-0.007 0,-0.001C-0.407,-0.007 -0.407,0.633 0,0.626" style="fill-rule:nonzero;"/>
            </g>
            <g transform="matrix(8.96408,0,0,8.96408,227.294,122.083)">
                <path d="M0,0.628C0.407,0.633 0.407,-0.005 0,0C-0.407,-0.005 -0.407,0.633 0,0.628" style="fill-rule:nonzero;"/>
            </g>
            <g transform="matrix(8.96408,0,0,8.96408,209.888,146.026)">
                <path d="M0,0.63C0.407,0.635 0.407,-0.005 0,0.002C-0.407,-0.005 -0.407,0.635 0,0.63" style="fill-rule:nonzero;"/>
            </g>
            <g transform="matrix(8.96408,0,0,8.96408,239.323,113.362)">
                <path d="M0,0.628C0.407,0.633 0.407,-0.005 0,0C-0.407,-0.005 -0.407,0.633 0,0.628" style="fill-rule:nonzero;"/>
            </g>
            <g transform="matrix(8.96408,0,0,8.96408,217.355,133.18)">
                <path d="M0,0.626C0.407,0.633 0.407,-0.007 0,-0.002C-0.407,-0.007 -0.407,0.633 0,0.626" style="fill-rule:nonzero;"/>
            </g>
            <g transform="matrix(8.96408,0,0,8.96408,213.288,139.443)">
                <path d="M0,0.626C0.407,0.633 0.407,-0.007 0,-0.001C-0.407,-0.007 -0.407,0.633 0,0.626" style="fill-rule:nonzero;"/>
            </g>
            <g transform="matrix(8.96408,0,0,8.96408,252.973,107.494)">
                <path d="M0,0.63C0.407,0.635 0.407,-0.005 0,0.002C-0.407,-0.005 -0.407,0.635 0,0.63" style="fill-rule:nonzero;"/>
            </g>
            <g transform="matrix(8.96408,0,0,8.96408,222.044,127.374)">
                <path d="M0,0.626C0.407,0.631 0.407,-0.007 0,-0.002C-0.407,-0.007 -0.407,0.633 0,0.626" style="fill-rule:nonzero;"/>
            </g>
            <g transform="matrix(8.96408,0,0,8.96408,245.977,110.066)">
                <path d="M0,0.626C0.407,0.633 0.407,-0.007 0,-0.002C-0.407,-0.007 -0.407,0.633 0,0.626" style="fill-rule:nonzero;"/>
            </g>
            <g transform="matrix(8.96408,0,0,8.96408,276.379,109.085)">
                <path d="M0,3.651L0.418,3.651C0.418,2.328 0.61,1.18 0.956,0.423C1.073,0.179 0.685,0 0.576,0.249C0.077,1.343 0,2.847 0,3.651" style="fill-rule:nonzero;"/>
            </g>
            <g transform="matrix(8.96408,0,0,8.96408,262.941,109.085)">
                <path d="M0,3.651L0.418,3.651C0.418,2.847 0.342,1.343 -0.158,0.249C-0.269,0 -0.654,0.179 -0.537,0.423C-0.192,1.18 0,2.328 0,3.651" style="fill-rule:nonzero;"/>
            </g>
            <g transform="matrix(8.96408,0,0,8.96408,271.535,135.675)">
                <path d="M0,0.68C0.441,0.687 0.441,-0.007 0,0C-0.441,-0.007 -0.441,0.687 0,0.68" style="fill-rule:nonzero;"/>
            </g>
            <g transform="matrix(8.96408,0,0,8.96408,271.535,128.047)">
                <path d="M0,0.678C0.441,0.685 0.441,-0.007 0,-0.001C-0.441,-0.007 -0.441,0.685 0,0.678" style="fill-rule:nonzero;"/>
            </g>
            <g transform="matrix(8.96408,0,0,8.96408,271.535,120.41)">
                <path d="M0,0.678C0.441,0.685 0.441,-0.007 0,-0.001C-0.441,-0.007 -0.441,0.685 0,0.678" style="fill-rule:nonzero;"/>
            </g>
            <g transform="matrix(8.96408,0,0,8.96408,269.375,112.311)">
                <path d="M0,0.75C0.143,0.675 0.339,0.675 0.482,0.75C0.969,0 -0.487,0 0,0.75" style="fill-rule:nonzero;"/>
            </g>
            <g transform="matrix(8.96408,0,0,8.96408,273.957,106.302)">
                <path d="M0,0.705C0.379,0 -0.92,0 -0.54,0.705C-0.383,0.607 -0.158,0.607 0,0.705" style="fill-rule:nonzero;"/>
            </g>
            <g transform="matrix(8.96408,0,0,8.96408,269.696,102.483)">
                <path d="M0,-1.732C-0.055,-1.297 -0.283,-0.96 -0.566,-0.91L-0.566,-0.798L-0.015,-0.798C-0.041,-0.778 -0.063,-0.755 -0.083,-0.729C-1.066,-0.511 -1.167,0.99 -0.228,1.345C-0.594,0.99 -0.313,0.308 0.205,0.326C0.723,0.308 1.006,0.99 0.638,1.345C1.579,0.99 1.476,-0.511 0.493,-0.729C0.474,-0.755 0.451,-0.778 0.425,-0.798L0.977,-0.798L0.977,-0.91C0.693,-0.96 0.466,-1.297 0.41,-1.732C0.846,-1.677 1.182,-1.449 1.234,-1.166L1.345,-1.166L1.345,-2.709L1.234,-2.709C1.182,-2.425 0.846,-2.199 0.41,-2.142C0.466,-2.578 0.693,-2.914 0.977,-2.966L0.977,-3.077L-0.566,-3.077L-0.566,-2.966C-0.283,-2.914 -0.055,-2.578 0,-2.142C-0.435,-2.199 -0.772,-2.425 -0.824,-2.709L-0.934,-2.709L-0.934,-1.166L-0.824,-1.166C-0.772,-1.449 -0.435,-1.677 0,-1.732" style="fill-rule:nonzero;"/>
            </g>
            <g transform="matrix(8.96408,0,0,8.96408,391.75,301.773)">
                <path d="M0,0.174L0.002,0.176C-0.034,0.115 -0.068,0.055 -0.098,-0.002C-0.088,0.07 -0.057,0.133 0,0.174" style="fill-rule:nonzero;"/>
            </g>
            <g transform="matrix(8.96408,0,0,8.96408,391.043,359.532)">
                <path d="M0,-5.085C-0.047,-5.031 -0.358,-4.149 -0.461,-4.183C-0.503,-4.255 -0.599,-4.3 -0.68,-4.276C-0.728,-4.3 -0.746,-4.365 -0.721,-4.422C-0.663,-4.481 -0.374,-5.385 -0.239,-5.323C-0.203,-5.238 -0.099,-5.183 -0.011,-5.205C0.013,-5.176 0.018,-5.127 0,-5.085M-0.842,-2.007C-0.814,-2.23 -1.1,-2.353 -1.218,-2.163C-1.187,-2.248 -1.296,-3.094 -1.14,-3.093C-1.073,-3.045 -0.986,-3.037 -0.917,-3.086C-0.868,-3.079 -0.83,-3.031 -0.83,-2.974L-0.829,-2.062C-0.829,-2.041 -0.833,-2.023 -0.842,-2.007M-0.387,-0.418C-0.656,1.135 -2.652,-0.402 -1.223,-1.058C-1.157,-0.91 -0.931,-0.901 -0.864,-1.054C-0.589,-0.975 -0.387,-0.717 -0.387,-0.418M-0.182,-5.616C-0.617,-5.889 -0.86,-4.683 -1.021,-4.476C-1.099,-4.299 -1.03,-4.108 -0.871,-4.051L-1.192,-3.384C-1.364,-3.413 -1.514,-3.281 -1.514,-3.081C-1.449,-2.821 -1.708,-1.691 -1.249,-1.676L-1.249,-1.365C-2.357,-1.167 -2.191,0.578 -1.052,0.551C0.08,0.578 0.256,-1.15 -0.842,-1.362L-0.842,-1.663C-0.669,-1.636 -0.518,-1.766 -0.518,-1.968C-0.578,-2.218 -0.343,-3.307 -0.749,-3.364L-0.505,-3.874C-0.088,-3.648 0.155,-4.825 0.313,-5.025C0.386,-5.189 0.329,-5.378 0.184,-5.438L0.37,-5.822C0.317,-5.891 0.21,-6.05 0.109,-6.22L-0.182,-5.616Z" style="fill-rule:nonzero;"/>
            </g>
            <g transform="matrix(8.96408,0,0,8.96408,190.4,283.056)">
                <path d="M0,0.96L0.098,1.336L1.828,1.123L1.743,0.781C1.657,0.763 0.576,0.962 0.576,0.962C0.576,0.962 1.602,-0.235 1.576,-0.376L-0.169,-0.179L-0.133,0.12C-0.049,0.11 0.894,-0.023 0.894,-0.023C0.894,-0.023 0.039,0.942 0,0.96" style="fill-rule:nonzero;"/>
            </g>
            <g transform="matrix(8.96408,0,0,8.96408,196.807,307.796)">
                <path d="M0,-0.474C0.366,-1.14 1.589,-0.743 1.084,0.016C0.703,0.659 -0.496,0.296 0,-0.474M-0.098,0.421C0.739,1.221 2.056,-0.062 1.188,-0.886C0.352,-1.695 -0.985,-0.404 -0.098,0.421" style="fill-rule:nonzero;"/>
            </g>
            <g transform="matrix(8.96408,0,0,8.96408,206.354,314.977)">
                <path d="M0,1.51L0.291,1.914C0.602,1.533 1.242,1.069 1.701,0.893L1.41,0.489C1.296,0.675 1.047,0.857 0.851,0.992L0.404,0.372C0.593,0.231 0.843,0.05 1.055,-0.001L0.762,-0.404C0.453,-0.022 -0.187,0.44 -0.646,0.615L-0.355,1.02C-0.243,0.834 0.005,0.655 0.199,0.52L0.648,1.139C0.459,1.28 0.21,1.461 0,1.51" style="fill-rule:nonzero;"/>
            </g>
            <g transform="matrix(0.580234,-8.94528,-8.94528,-0.580234,199.154,264.931)">
                <path d="M-1.01,-0.705L-0.639,-0.705C-0.764,-0.218 -0.816,0.579 -0.752,1.077L-1.123,1.078C-0.996,0.59 -0.944,-0.206 -1.01,-0.705" style="fill-rule:nonzero;"/>
            </g>
            <g transform="matrix(8.96408,0,0,8.96408,317.507,324.566)">
                <path d="M0,1.879C1.058,1.417 0.822,0.363 -0.373,0.844C-0.874,0.702 -0.241,0.193 0.091,0.305L0.099,0.298L-0.151,0C-0.529,0.165 -1.128,0.671 -0.809,1.099C-0.588,1.383 -0.14,1.081 0.151,1.086C0.636,1.171 0.114,1.677 -0.186,1.648L-0.19,1.654" style="fill-rule:nonzero;"/>
            </g>
            <g transform="matrix(8.96408,0,0,8.96408,343.519,294.993)">
                <path d="M0,1.501L0.301,0.48C0.148,0.492 -1.226,0.091 -1.349,0L-1.634,0.97L-1.348,1.213L-1.341,1.21C-1.363,0.988 -1.333,0.736 -1.252,0.458L-0.731,0.611C-0.781,0.762 -0.874,1.107 -0.946,1.197L-0.685,1.236L-0.518,0.671L-0.02,0.817C-0.078,1.003 -0.161,1.151 -0.267,1.257L0,1.501Z" style="fill-rule:nonzero;"/>
            </g>
            <g transform="matrix(8.96408,0,0,8.96408,337.292,317.552)">
                <path d="M0,0.342L0.163,0.026L-1.195,-0.882L-1.345,-0.599C-1.293,-0.532 -0.407,-0.011 -0.407,-0.011C-0.407,-0.011 -1.866,0.179 -1.934,0.293L-0.578,1.224L-0.42,0.995C-0.487,0.952 -1.234,0.467 -1.234,0.467C-1.234,0.467 -0.039,0.331 0,0.342" style="fill-rule:nonzero;"/>
            </g>
            <g transform="matrix(8.96408,0,0,8.96408,303.705,332.627)">
                <path d="M0,1.986L0.944,1.441C0.824,1.348 0.09,0.147 0.062,0L-0.833,0.519L-0.793,0.886L-0.788,0.887C-0.645,0.71 -0.446,0.547 -0.189,0.397L0.09,0.855C-0.055,0.931 -0.368,1.122 -0.485,1.14L-0.319,1.341L0.203,1.039L0.47,1.475C0.295,1.571 0.129,1.623 -0.024,1.631L0,1.986Z" style="fill-rule:nonzero;"/>
            </g>
            <g transform="matrix(8.96408,0,0,8.96408,209.31,246.069)">
                <path d="M0,-0.288C-0.282,-0.511 -0.645,-0.114 -0.93,-0.049C-1.421,-0.018 -1.032,-0.631 -0.734,-0.674L-0.731,-0.682L-0.969,-0.856C-1.415,-0.628 -1.752,0.334 -1.034,0.355C-0.881,0.363 -0.492,0.093 -0.363,0.062C-0.026,-0.001 -0.133,0.453 -0.335,0.56C-0.236,0.557 -0.13,0.542 -0.034,0.568C0.153,0.305 0.273,-0.081 0,-0.288" style="fill-rule:nonzero;"/>
            </g>
            <g transform="matrix(8.96408,0,0,8.96408,212.439,227.538)">
                <path d="M0,1.262C-0.788,1.212 -0.952,-0.151 0,0.056L0,-0.275C-1.234,-0.348 -1.216,1.61 0,1.568L0,1.262Z" style="fill-rule:nonzero;"/>
            </g>
            <g transform="matrix(8.96408,0,0,8.96408,229.973,207.707)">
                <path d="M0,1.065C0.003,1.063 0.54,1.065 0.544,1.065C0.339,0.739 0.173,0.472 0.173,0.472C0.361,0.362 0.762,0.201 0.941,0.212L0.513,-0.114L-0.801,0.673L-0.65,1.177L-0.643,1.179C-0.536,0.971 -0.376,0.801 -0.202,0.705C-0.161,0.777 -0.09,0.907 0,1.065" style="fill-rule:nonzero;"/>
            </g>
            <g transform="matrix(8.96408,0,0,8.96408,255.381,202.237)">
                <path d="M0,1.184C0.658,0.927 0.088,-0.091 -0.495,0.15C-1.146,0.399 -0.584,1.425 0,1.184M1.003,1.446L1.004,1.454C0.744,1.666 0.409,1.578 0.129,1.428C-0.689,1.887 -1.573,0.811 -0.916,0.121C-0.226,-0.703 1.144,0.232 0.482,1.14C0.698,1.306 0.871,1.407 1.003,1.446" style="fill-rule:nonzero;"/>
            </g>
            <g transform="matrix(8.96408,0,0,8.96408,266.575,207.324)">
                <path d="M0,0.15C-0.005,-0.132 0.034,-0.63 -0.086,-0.871L0.498,-0.871C0.404,-0.609 0.234,0.596 0.734,0.534C0.93,0.537 1.125,0.402 1.12,0.196C1.113,-0.091 1.159,-0.623 1.035,-0.871L1.618,-0.871C1.481,-0.418 1.481,0.376 1.618,0.829L1.123,0.829C1.135,0.795 1.139,0.739 1.139,0.661C0.635,1.021 -0.047,0.842 0,0.15" style="fill-rule:nonzero;"/>
            </g>
            <g transform="matrix(8.96267,0.158583,0.158583,-8.96267,288.626,216.188)">
                <path d="M0.015,-0.001C0.11,0.419 0.243,1.134 0.47,1.495L0.015,1.638C0.027,1.187 -0.201,0.482 -0.346,0.052C-0.172,0.032 -0.172,0.032 0.015,-0.001" style="fill-rule:nonzero;"/>
            </g>
            <g transform="matrix(8.96408,0,0,8.96408,279.315,244.564)">
                <path d="M0,0.407L0,0.451C0.008,0.366 0.147,0.43 0.077,0.488L0.099,0.508C0.239,0.524 0.26,0.314 0.117,0.306L0.117,0.303L0.286,0.23L0.286,0.177L0.117,0.103L0.117,0.098C0.26,0.09 0.239,-0.12 0.099,-0.104L0.077,-0.083C0.147,-0.024 0.007,0.039 0,-0.047C0,-0.041 -0.002,0 0.002,0.005L0,0.005L0,-1.825L0.145,-1.825L0.145,-1.962L1.722,-1.962C1.809,-1.947 1.735,-1.826 1.678,-1.89L1.657,-1.869C1.639,-1.73 1.874,-1.721 1.872,-1.861L1.955,-1.693L2.01,-1.693L2.09,-1.861C2.09,-1.721 2.323,-1.73 2.307,-1.869L2.284,-1.89C2.229,-1.826 2.154,-1.947 2.242,-1.962L3.821,-1.962L3.821,-1.825L3.967,-1.825C3.949,-1.857 4.024,0.422 3.891,-0.083L3.866,-0.104C3.728,-0.12 3.708,0.091 3.85,0.099L3.85,0.103L3.679,0.177L3.679,0.23L3.85,0.303L3.85,0.306C3.708,0.314 3.728,0.524 3.866,0.508L3.891,0.488C4.024,-0.031 3.951,2.299 3.967,2.233L3.821,2.233L3.821,2.37L2.245,2.37C2.154,2.357 2.225,2.232 2.286,2.297L2.307,2.276C2.325,2.141 2.097,2.128 2.092,2.261L2.089,2.261L2.007,2.098L1.953,2.098L1.875,2.261L1.872,2.261C1.866,2.128 1.643,2.139 1.657,2.276L1.678,2.297C1.739,2.232 1.81,2.357 1.719,2.37L0.145,2.37L0.145,2.233L0,2.233L0,0.407ZM2.189,-1.962L2.191,-1.962L2.189,-1.962ZM3.967,0.005L3.967,0.003L3.967,0.005ZM1.768,2.37L1.766,2.37L1.768,2.369L1.768,2.37ZM2.198,2.37L2.194,2.37L2.194,2.369C2.196,2.369 2.196,2.37 2.198,2.37M-0.145,2.507L4.112,2.507L4.112,-2.1L-0.145,-2.1L-0.145,2.507Z" style="fill-rule:nonzero;"/>
            </g>
            <g transform="matrix(8.96408,0,0,8.96408,298.732,268.619)">
                <path d="M-2.496,-4.96L2.129,-4.96L2.129,0.002L-2.496,0.002L-2.496,-2.495L-2.494,-2.495L-2.496,-2.495L-2.496,-4.96ZM2.574,0C2.575,-0.096 2.469,-0.168 2.377,-0.135L2.377,-0.112C2.209,0.646 2.29,-2.481 2.276,-2.365L2.43,-2.302L2.43,-2.665L2.276,-2.601L2.276,-4.906C2.299,-5.022 2.478,-4.923 2.378,-4.848L2.378,-4.827C2.592,-4.76 2.653,-5.098 2.427,-5.102L2.569,-5.347L2.535,-5.38C2.533,-5.38 2.281,-5.242 2.279,-5.243C2.274,-5.453 1.918,-5.401 1.986,-5.198L2.007,-5.198C2.084,-5.289 2.193,-5.126 2.071,-5.102L-0.055,-5.1L0.011,-5.243L-0.374,-5.243L-0.309,-5.1L-2.432,-5.1C-2.561,-5.12 -2.453,-5.292 -2.373,-5.198L-2.352,-5.198C-2.282,-5.401 -2.642,-5.453 -2.644,-5.243C-2.647,-5.24 -2.899,-5.38 -2.901,-5.38L-2.935,-5.347L-2.793,-5.102C-3.02,-5.098 -2.958,-4.76 -2.746,-4.827L-2.746,-4.848C-2.579,-5.606 -2.658,-2.495 -2.644,-2.603L-2.795,-2.665L-2.795,-2.302L-2.644,-2.364C-2.658,-2.417 -2.579,0.627 -2.746,-0.112L-2.746,-0.135C-2.958,-0.2 -3.02,0.138 -2.792,0.142L-2.935,0.386L-2.901,0.418C-2.898,0.418 -2.647,0.278 -2.645,0.282C-2.642,0.493 -2.282,0.44 -2.352,0.234L-2.373,0.234C-2.408,0.287 -2.496,0.259 -2.494,0.2C-2.494,0.168 -2.468,0.145 -2.435,0.14L-0.308,0.14L-0.374,0.285L0.011,0.285L-0.055,0.14L2.067,0.14C2.1,0.145 2.124,0.168 2.124,0.2C2.128,0.259 2.038,0.287 2.005,0.234L1.983,0.234C1.916,0.44 2.274,0.492 2.276,0.282C2.279,0.278 2.53,0.418 2.531,0.418L2.567,0.386L2.425,0.142C2.507,0.14 2.574,0.078 2.574,0" style="fill-rule:nonzero;"/>
            </g>
            <g transform="matrix(8.96408,0,0,8.96408,279.365,248.613)">
                <path d="M0,0.003L0,0C-0.002,0.001 -0.002,0.001 0,0.003" style="fill-rule:nonzero;"/>
            </g>
            <g transform="matrix(8.96408,0,0,8.96408,279.365,244.119)">
                <path d="M0,0.002L0,0C-0.002,0 -0.002,0 0,0.002" style="fill-rule:nonzero;"/>
            </g>
            <g transform="matrix(6.91383,-5.70558,-5.70558,-6.91383,145.722,171.109)">
                <path d="M-0.307,0.35L-0.174,0.35C0.128,0.652 0.523,0.817 0.921,0.791C0.924,0.829 0.924,0.864 0.924,0.896C0.47,0.925 0.02,0.718 -0.307,0.35" style="fill-rule:nonzero;"/>
            </g>
            <g transform="matrix(8.47803,-2.91165,-2.91165,-8.47803,151.638,164.398)">
                <path d="M-0.14,-0.033L-0.035,-0.033C-0.038,0.159 -0.063,0.519 -0.191,0.783C-0.219,0.843 -0.314,0.802 -0.284,0.743C-0.196,0.56 -0.143,0.286 -0.14,-0.033" style="fill-rule:nonzero;"/>
            </g>
            <g transform="matrix(8.96408,0,0,8.96408,142.563,159.352)">
                <path d="M0,0.304C0.2,0.309 0.203,0 0.005,0C-0.192,-0.005 -0.197,0.304 0,0.304" style="fill-rule:nonzero;"/>
            </g>
            <g transform="matrix(8.96408,0,0,8.96408,168.569,154.336)">
                <path d="M0,0.207C-0.135,0.353 -0.36,0.139 -0.22,-0.003C-0.086,-0.146 0.138,0.067 0,0.207" style="fill-rule:nonzero;"/>
            </g>
            <g transform="matrix(8.96408,0,0,8.96408,171.32,156.621)">
                <path d="M0,0.208C-0.135,0.353 -0.36,0.14 -0.221,-0.002C-0.088,-0.145 0.138,0.068 0,0.208" style="fill-rule:nonzero;"/>
            </g>
            <g transform="matrix(8.96408,0,0,8.96408,158.623,152.154)">
                <path d="M0,0.208C-0.135,0.353 -0.36,0.14 -0.22,-0.004C-0.086,-0.145 0.138,0.068 0,0.208" style="fill-rule:nonzero;"/>
            </g>
            <g transform="matrix(8.96408,0,0,8.96408,165.462,152.866)">
                <path d="M0,0.208C-0.135,0.353 -0.36,0.14 -0.22,-0.004C-0.086,-0.145 0.138,0.068 0,0.208" style="fill-rule:nonzero;"/>
            </g>
            <g transform="matrix(-8.92156,0.872032,0.872032,8.92156,157.041,155.435)">
                <path d="M-1.255,0.538L-1.121,0.538C-0.818,0.238 -0.422,0.077 -0.023,0.107C-0.02,0.069 -0.018,0.034 -0.02,0.001C-0.474,-0.03 -0.926,0.17 -1.255,0.538" style="fill-rule:nonzero;"/>
            </g>
            <g transform="matrix(-8.00043,4.04323,4.04323,8.00043,154.085,155.82)">
                <path d="M-0.128,0.809L-0.024,0.809C-0.028,0.616 -0.054,0.255 -0.184,-0.008C-0.211,-0.067 -0.307,-0.026 -0.277,0.033C-0.189,0.217 -0.135,0.492 -0.128,0.809" style="fill-rule:nonzero;"/>
            </g>
            <g transform="matrix(8.96408,0,0,8.96408,162.057,152.104)">
                <path d="M0,0.208C-0.135,0.353 -0.36,0.14 -0.22,-0.004C-0.086,-0.145 0.138,0.068 0,0.208" style="fill-rule:nonzero;"/>
            </g>
            <g transform="matrix(8.96408,0,0,8.96408,308.97,308.416)">
                <path d="M0,-0.866C0.441,-0.874 1.465,-1.359 0.721,-1.761C0.304,-1.831 -0.109,-1.628 -0.511,-1.533C-2.124,-0.894 -1.179,-1.677 -2.181,-1.59C-1.843,-0.736 -0.988,-1.177 -0.348,-1.376C-0.329,-1.283 -0.448,-1.26 -0.431,-1.167C-0.216,-1.211 -0.01,-1.253 0.192,-1.296C0.28,-1.714 1.047,-1.719 0.695,-1.299C-0.189,-0.913 -1.231,-0.985 -2.155,-0.723C-2.774,0.897 -3.848,-0.205 -3.837,0.257C-4.079,0.282 -4.076,0.514 -3.829,0.495C-3.822,0.965 -2.631,0.42 -2.409,0.275C-2.357,0.161 -2.308,0.055 -2.258,-0.05C-1.896,0.125 -1.641,-0.396 -1.327,-0.488C-1.014,-0.552 -0.607,-0.856 -0.339,-0.573C-0.042,-0.246 0.4,-0.746 0.663,-0.415C0.563,-0.158 0.693,-0.272 0.737,-0.111C0.733,0.033 0.973,0.031 0.977,-0.114C0.977,-0.177 0.983,-0.218 1.045,-0.243C1.179,-0.444 0.897,-0.667 0.798,-0.833C0.58,-1.043 0.22,-0.645 0,-0.866" style="fill-rule:nonzero;"/>
            </g>
            <g transform="matrix(8.96408,0,0,8.96408,273.202,278.797)">
                <path d="M0,1.726C0.072,1.75 0.044,1.833 0.078,1.879C0.459,1.903 0.838,1.803 1.223,1.757C1.509,1.755 1.498,1.503 1.708,1.469C2.216,1.493 2.531,1.047 3.008,0.974C3.391,0.866 3.905,0.725 4.244,0.993C4.325,1.083 4.442,1.101 4.566,1.08C4.727,1.05 4.919,1.015 5.004,1.203C4.976,1.231 4.95,1.26 4.913,1.3C4.929,1.334 4.949,1.374 4.967,1.417C5.046,1.412 5.058,1.475 5.089,1.526C5.133,1.597 5.234,1.597 5.25,1.526C5.269,1.435 5.362,1.482 5.391,1.402C5.406,1.168 5.356,0.878 5.121,0.761C5.006,0.653 4.551,0.875 4.538,0.65C4.877,0.726 5.527,0.284 5.081,-0.001C4.325,-0.177 3.495,0.189 2.728,0.274C2.427,0.341 2.577,-0.149 1.911,-0.016C2.339,0.878 3.265,0.245 3.983,0.237C3.988,0.318 3.847,0.313 3.881,0.412C4.091,0.347 4.446,0.46 4.566,0.251C4.63,-0.003 5.167,0.057 5.009,0.349C4.607,0.608 4.008,0.489 3.537,0.541C2.959,0.591 2.329,0.604 1.789,0.806C1.682,1.142 1.533,1.487 1.148,1.565C0.877,1.303 0.485,1.614 0.195,1.348C0.101,1.366 0.081,1.422 0.044,1.495C-0.098,1.55 -0.147,1.628 0,1.726" style="fill-rule:nonzero;"/>
            </g>
            <g transform="matrix(8.96408,0,0,8.96408,311.335,337.738)">
                <path d="M0,-2.498C-0.755,-2.596 -0.641,-2.073 -1.014,-2.197C-0.946,-2.28 -0.76,-2.327 -0.82,-2.451C-1.376,-2.208 -1.957,-2.036 -2.509,-1.787C-2.789,-1.49 -2.697,-0.896 -3.331,-0.841C-3.353,-0.532 -3.786,-0.323 -4.055,-0.462C-4.162,-0.361 -4.115,-0.335 -4.099,-0.24C-4.19,-0.159 -4.315,0.033 -4.118,0.032C-4.057,0.019 -4.008,-0.074 -3.944,-0.045C-3.949,-0.004 -3.954,0.037 -3.959,0.081C-3.905,0.081 -3.835,0.098 -3.817,0.074C-3.731,-0.033 -3.606,0.054 -3.508,-0.03C-3.184,-0.248 -2.719,-0.449 -2.745,-0.904C-2.17,-1.157 -1.838,-2.085 -1.089,-1.757C-0.72,-1.559 -0.619,-2.158 -0.288,-2.171C-0.194,-1.951 -0.148,-1.969 -0.029,-2.042C0.179,-1.881 0.143,-2.133 0.225,-2.252C0.234,-2.366 0.117,-2.5 0,-2.498" style="fill-rule:nonzero;"/>
            </g>
            <g transform="matrix(8.96408,0,0,8.96408,280.705,285.597)">
                <path d="M0,-0.317C-0.12,0.026 0.003,0.482 0.322,0.671C0.687,0.508 0.921,0.031 0.794,-0.369C0.882,-0.442 0.988,-0.48 0.957,-0.602C0.899,-0.74 0.682,-0.638 0.627,-0.799C0.49,-0.988 0.308,-0.833 0.197,-0.708C0.112,-0.696 0.031,-0.74 -0.047,-0.7C-0.129,-0.555 0.093,-0.467 0,-0.317" style="fill-rule:nonzero;"/>
            </g>
            <g transform="matrix(8.96408,0,0,8.96408,279.864,322.017)">
                <path d="M0,0.429C0.355,1.279 0.889,0.198 0.757,-0.263C1.003,-0.465 0.934,-0.584 0.638,-0.605C0.534,-0.828 0.308,-0.85 0.153,-0.662C0.098,-0.593 0.015,-0.619 -0.057,-0.611C-0.208,-0.541 -0.124,-0.374 0.008,-0.338C-0.064,-0.079 -0.101,0.178 0,0.429" style="fill-rule:nonzero;"/>
            </g>
            <g transform="matrix(8.96408,0,0,8.96408,288.621,305.106)">
                <path d="M0,-0.84C-0.068,-0.879 -0.156,-0.881 -0.233,-0.876C-0.358,-1.208 -0.588,-1.081 -0.772,-0.884C-1.047,-0.993 -1.006,-0.746 -0.859,-0.61C-0.998,-0.275 -0.903,0.223 -0.545,0.368C-0.169,0.212 -0.065,-0.247 -0.086,-0.615C0.031,-0.635 0.125,-0.767 0,-0.84" style="fill-rule:nonzero;"/>
            </g>
            <g transform="matrix(8.96408,0,0,8.96408,312.875,316.712)">
                <path d="M0,-1.022C-0.677,-1.25 -1.739,0.223 -2.188,-0.211C-2.299,-0.447 -2.634,-0.421 -2.844,-0.358C-2.59,-0.174 -2.452,0.228 -2.067,0.096C-1.631,0.012 -1.289,-0.338 -0.915,-0.501C-0.903,-0.376 -1.032,-0.32 -1.086,-0.2C-0.827,-0.281 -0.596,-0.353 -0.405,-0.517C-0.438,-1.23 0.58,-0.731 -0.397,-0.293C-0.223,-0.289 -0.101,-0.211 0.015,-0.353C0.238,-0.553 0.251,-0.843 0,-1.022" style="fill-rule:nonzero;"/>
            </g>
            <g transform="matrix(8.96408,0,0,8.96408,299.109,332.56)">
                <path d="M0,-1.143C-0.199,-1.094 -0.397,-1.076 -0.519,-0.873C-0.47,-0.806 -0.423,-0.743 -0.373,-0.674C-0.467,-0.428 -0.711,-0.471 -0.941,-0.459C-0.92,-0.383 -0.908,-0.34 -0.894,-0.288C-0.99,-0.236 -1.027,-0.15 -1.008,-0.028C-0.983,-0.021 -0.952,-0.01 -0.921,0C-0.858,-0.078 -0.742,-0.16 -0.715,-0.012C-0.3,-0.147 0.072,-0.399 0.27,-0.787C0.151,-0.878 0.05,-0.985 0,-1.143" style="fill-rule:nonzero;"/>
            </g>
            <g transform="matrix(8.96408,0,0,8.96408,294.2,305.9)">
                <path d="M0,0.367C-0.088,0.367 -0.107,0.479 -0.047,0.533C0.013,0.598 0.07,0.527 0.138,0.544C0.14,0.584 0.143,0.614 0.145,0.644C0.508,0.667 1.056,0.341 1.249,0.05C1.172,-0.071 1.099,-0.183 1.022,-0.3C0.825,-0.237 0.602,-0.242 0.483,-0.064C0.555,0.011 0.617,0.076 0.685,0.149C0.552,0.222 0.399,0.347 0.254,0.229C0.195,0.175 0.031,0.199 0.07,0.304C0.077,0.32 0.068,0.339 0.065,0.359C0.039,0.362 0.02,0.364 0,0.367" style="fill-rule:nonzero;"/>
            </g>
            <g transform="matrix(8.96408,0,0,8.96408,280.363,321.395)">
                <path d="M0,0.848C-0.135,0.586 -0.345,0.345 -0.444,0.07C-0.324,-0.098 -0.378,-0.313 -0.602,-0.176C-0.658,-0.288 -0.742,-0.311 -0.846,-0.282C-0.876,-0.208 -0.89,-0.138 -0.812,-0.083C-0.807,-0.08 -0.814,-0.062 -0.814,-0.051C-0.84,-0.042 -0.864,-0.034 -0.887,-0.026C-0.943,0.119 -0.801,0.203 -0.747,0.314C-0.593,0.562 -0.361,1.161 0,0.848" style="fill-rule:nonzero;"/>
            </g>
            <g transform="matrix(8.96408,0,0,8.96408,280.363,280.318)">
                <path d="M0,1.108C-0.02,0.745 -0.44,0.512 -0.313,0.148C-0.278,0.079 -0.29,-0.001 -0.36,-0.056C-0.482,-0.022 -0.482,-0.022 -0.575,-0.08C-0.731,-0.158 -0.754,0.014 -0.739,0.125C-0.77,0.139 -0.799,0.154 -0.843,0.174C-0.733,0.485 -0.407,1.266 0,1.108" style="fill-rule:nonzero;"/>
            </g>
            <g transform="matrix(8.96408,0,0,8.96408,273.109,304.235)">
                <path d="M0,-0.328C0.155,-0.092 0.197,0.281 0.459,0.418C0.578,0.418 0.763,0.527 0.833,0.383C0.757,0.105 0.41,-0.058 0.461,-0.377C0.477,-0.452 0.449,-0.525 0.387,-0.592C0.254,-0.553 -0.028,-0.855 0.075,-0.496C-0.008,-0.466 -0.057,-0.408 0,-0.328" style="fill-rule:nonzero;"/>
            </g>
            <g transform="matrix(8.96408,0,0,8.96408,219.35,222.099)">
                <path d="M0,1.577C0.057,1.58 0.116,1.514 0.174,1.574C0.169,1.603 0.164,1.634 0.158,1.667C0.527,1.826 0.933,1.645 1.297,1.546C1.442,1.502 1.525,1.356 1.685,1.359C2.063,1.387 2.277,1.069 2.601,0.978C3.003,0.901 3.409,0.838 3.819,0.846C4.289,1.487 4.374,0.942 4.796,1.16C4.783,1.222 4.771,1.284 4.758,1.349C4.801,1.364 4.836,1.375 4.869,1.388C4.827,1.546 5.064,1.64 5.095,1.439C5.1,1.413 5.089,1.382 5.125,1.378C5.375,1.242 4.989,0.579 4.724,0.752C4.587,0.815 4.41,0.879 4.304,0.717C4.537,0.623 4.827,0.646 4.986,0.426C5.105,0.281 5.094,-0.009 4.867,-0.085C4.278,-0.249 3.655,0.05 3.059,0.101C1.94,0.403 2.738,-0.139 1.851,-0.134C2.17,0.774 3.122,0.19 3.785,0.123C3.738,0.231 3.629,0.271 3.585,0.367C3.819,0.322 4.127,0.41 4.301,0.229C4.39,-0.02 4.983,-0.049 4.845,0.289C4.285,0.835 2.536,0.324 1.758,0.674C1.641,1.03 1.436,1.266 1.096,1.362C0.816,1.19 0.69,1.385 0.412,1.308C0.335,1.224 0.257,1.128 0.135,1.222C0.137,1.258 0.137,1.3 0.138,1.349C0.007,1.312 -0.142,1.494 0,1.577" style="fill-rule:nonzero;"/>
            </g>
            <g transform="matrix(8.96408,0,0,8.96408,228.028,229.519)">
                <path d="M0,-0.637C-0.205,-0.259 -0.147,0.082 0.099,0.4C0.558,0.415 0.746,-0.211 0.671,-0.59C0.718,-0.622 0.763,-0.655 0.811,-0.687C0.798,-0.738 0.786,-0.777 0.773,-0.824C0.69,-0.827 0.615,-0.831 0.542,-0.834C0.376,-1.047 0.277,-1.052 0.078,-0.86C-0.057,-0.91 -0.057,-0.91 -0.147,-0.792C-0.114,-0.722 -0.07,-0.671 0,-0.637" style="fill-rule:nonzero;"/>
            </g>
            <g transform="matrix(8.96408,0,0,8.96408,248.099,238.172)">
                <path d="M0,-0.79C-0.021,-0.684 0.077,-0.639 0.094,-0.556C-0.029,-0.476 -0.163,-0.473 -0.293,-0.455C-0.363,-0.523 -0.389,-0.648 -0.51,-0.611C-0.578,-0.595 -0.54,-0.523 -0.591,-0.494C-0.724,-0.505 -0.724,-0.505 -0.746,-0.37C-0.705,-0.347 -0.661,-0.321 -0.62,-0.297C-0.721,0.177 0.573,-0.316 0.763,-0.456C0.702,-0.562 0.62,-0.637 0.596,-0.759C0.542,-0.967 0.158,-0.797 0,-0.79" style="fill-rule:nonzero;"/>
            </g>
            <g transform="matrix(8.96408,0,0,8.96408,226.426,221.67)">
                <path d="M0,1.109C-0.013,0.943 -0.055,0.749 -0.186,0.634C-0.334,0.482 -0.381,0.274 -0.231,0.113C-0.306,0.041 -0.405,0.1 -0.479,-0.001C-0.573,-0.109 -0.628,0.015 -0.651,0.127C-0.915,0.166 -0.762,0.253 -0.703,0.393C-0.615,0.635 -0.304,1.218 0,1.109" style="fill-rule:nonzero;"/>
            </g>
            <g transform="matrix(8.96408,0,0,8.96408,261.417,247.212)">
                <path d="M0,0.029C-0.137,0.094 -0.317,0.158 -0.425,-0.005C-0.189,-0.101 0.103,-0.077 0.264,-0.298C0.383,-0.445 0.373,-0.738 0.143,-0.814C-0.449,-0.98 -1.079,-0.679 -1.68,-0.627C-2.806,-0.321 -2.002,-0.868 -2.896,-0.863C-2.577,0.052 -1.615,-0.536 -0.947,-0.604C-0.995,-0.497 -1.105,-0.454 -1.149,-0.358C-0.913,-0.404 -0.602,-0.314 -0.426,-0.497C-0.335,-0.749 0.26,-0.778 0.12,-0.437C-0.443,0.114 -2.206,-0.402 -2.99,-0.049C-3.108,0.309 -3.316,0.547 -3.659,0.644C-3.897,0.498 -4.024,0.617 -4.229,0.609C-4.219,0.675 -4.201,0.74 -4.184,0.807C-4.167,0.874 -4.159,0.941 -4.154,1.009C-3.918,0.983 -3.679,0.892 -3.456,0.832C-3.309,0.786 -3.225,0.639 -3.065,0.643C-2.684,0.67 -2.468,0.35 -2.139,0.259C-1.735,0.182 -1.325,0.119 -0.913,0.125C-0.44,0.771 -0.353,0.221 0.072,0.441C0.06,0.504 0.047,0.566 0.034,0.633C0.077,0.648 0.112,0.659 0.145,0.67C0.104,0.832 0.342,0.926 0.374,0.721C0.379,0.696 0.368,0.665 0.404,0.661C0.656,0.524 0.269,-0.145 0,0.029" style="fill-rule:nonzero;"/>
            </g>
            <g transform="matrix(8.96408,0,0,8.96408,227.474,248.169)">
                <path d="M0,-0.643C-0.207,-0.262 -0.147,0.083 0.101,0.402C0.563,0.418 0.75,-0.213 0.677,-0.596C0.724,-0.628 0.77,-0.661 0.817,-0.693C0.804,-0.744 0.793,-0.785 0.78,-0.832C0.697,-0.835 0.62,-0.838 0.547,-0.842C0.379,-1.056 0.278,-1.061 0.08,-0.868C-0.057,-0.918 -0.057,-0.918 -0.148,-0.798C-0.116,-0.729 -0.072,-0.677 0,-0.643" style="fill-rule:nonzero;"/>
            </g>
            <g transform="matrix(8.96408,0,0,8.96408,247.709,256.886)">
                <path d="M0,-0.796C-0.021,-0.69 0.077,-0.643 0.094,-0.56C-0.029,-0.48 -0.164,-0.477 -0.296,-0.459C-0.365,-0.527 -0.394,-0.653 -0.514,-0.617C-0.583,-0.601 -0.544,-0.527 -0.596,-0.498C-0.731,-0.51 -0.731,-0.51 -0.75,-0.373C-0.71,-0.35 -0.667,-0.324 -0.627,-0.3C-0.728,0.179 0.576,-0.319 0.77,-0.461C0.707,-0.566 0.625,-0.641 0.601,-0.765C0.547,-0.975 0.16,-0.804 0,-0.796" style="fill-rule:nonzero;"/>
            </g>
            <g transform="matrix(8.96408,0,0,8.96408,225.855,240.258)">
                <path d="M0,1.118C-0.013,0.95 -0.055,0.753 -0.187,0.638C-0.335,0.485 -0.384,0.276 -0.233,0.112C-0.308,0.04 -0.409,0.101 -0.482,-0.002C-0.576,-0.109 -0.633,0.014 -0.656,0.128C-0.921,0.167 -0.768,0.254 -0.71,0.395C-0.62,0.641 -0.306,1.227 0,1.118" style="fill-rule:nonzero;"/>
            </g>
            <g transform="matrix(8.96408,0,0,8.96408,261.83,265.535)">
                <path d="M0,-0.066C-0.137,-0.003 -0.317,0.063 -0.423,-0.1C-0.189,-0.196 0.103,-0.172 0.264,-0.393C0.383,-0.54 0.373,-0.833 0.143,-0.909C-0.449,-1.074 -1.078,-0.774 -1.677,-0.72C-2.803,-0.418 -2.001,-0.963 -2.893,-0.958C-2.574,-0.043 -1.613,-0.632 -0.947,-0.699C-0.993,-0.59 -1.104,-0.549 -1.148,-0.453C-0.913,-0.499 -0.602,-0.409 -0.427,-0.592C-0.335,-0.844 0.26,-0.873 0.12,-0.532C-0.441,0.017 -2.204,-0.497 -2.987,-0.144C-3.104,0.212 -3.311,0.45 -3.655,0.548C-3.935,0.375 -4.061,0.572 -4.341,0.496C-4.368,0.465 -4.395,0.434 -4.424,0.409C-4.433,0.406 -4.441,0.401 -4.446,0.393C-4.455,0.387 -4.467,0.38 -4.478,0.377C-4.477,0.38 -4.475,0.385 -4.475,0.39C-4.47,0.554 -4.511,0.714 -4.574,0.864C-4.21,1.008 -3.811,0.833 -3.451,0.735C-3.305,0.689 -3.222,0.543 -3.06,0.546C-2.679,0.574 -2.465,0.253 -2.137,0.164C-1.734,0.085 -1.323,0.022 -0.912,0.03C-0.438,0.675 -0.353,0.126 0.072,0.346C0.06,0.408 0.047,0.47 0.034,0.536C0.077,0.551 0.112,0.562 0.145,0.575C0.103,0.735 0.342,0.828 0.374,0.624C0.378,0.6 0.368,0.569 0.404,0.566C0.654,0.427 0.267,-0.24 0,-0.066" style="fill-rule:nonzero;"/>
            </g>
            <g transform="matrix(8.96408,0,0,8.96408,227.937,265.621)">
                <path d="M0,-0.64C-0.208,-0.259 -0.148,0.083 0.101,0.403C0.562,0.418 0.749,-0.21 0.676,-0.593C0.723,-0.625 0.768,-0.658 0.816,-0.69C0.803,-0.741 0.791,-0.783 0.778,-0.829C0.695,-0.832 0.619,-0.835 0.545,-0.839C0.378,-1.053 0.278,-1.058 0.078,-0.865C-0.057,-0.915 -0.057,-0.915 -0.148,-0.796C-0.116,-0.726 -0.072,-0.674 0,-0.64" style="fill-rule:nonzero;"/>
            </g>
            <g transform="matrix(8.96408,0,0,8.96408,248.136,274.361)">
                <path d="M0,-0.798C-0.021,-0.692 0.077,-0.645 0.094,-0.562C-0.029,-0.482 -0.163,-0.477 -0.295,-0.459C-0.365,-0.529 -0.392,-0.655 -0.513,-0.619C-0.581,-0.601 -0.544,-0.529 -0.594,-0.5C-0.729,-0.512 -0.729,-0.512 -0.749,-0.375C-0.708,-0.352 -0.666,-0.326 -0.625,-0.302C-0.726,0.177 0.576,-0.321 0.77,-0.463C0.706,-0.568 0.625,-0.642 0.601,-0.765C0.545,-0.975 0.16,-0.805 0,-0.798" style="fill-rule:nonzero;"/>
            </g>
            <g transform="matrix(8.96408,0,0,8.96408,224.637,267.283)">
                <path d="M0,-0.428C-0.028,-0.457 -0.052,-0.487 -0.072,-0.521C-0.081,-0.435 -0.036,-0.335 -0.05,-0.252C-0.063,-0.185 -0.081,-0.086 -0.101,-0.023C0.007,0.08 0.07,0.093 0.187,0.051C0.173,-0.117 0.132,-0.312 0,-0.428" style="fill-rule:nonzero;"/>
            </g>
            <g transform="matrix(8.96408,0,0,8.96408,285.207,237.885)">
                <path d="M0,-0.506C0.101,-0.443 0.177,-0.145 0.238,-0.102C0.353,0.049 0.596,0.454 0.832,0.371L0.832,0.365C0.902,0.337 0.97,0.132 0.973,0.104C0.972,0.096 0.931,0.059 0.887,0.025C0.664,-0.169 0.531,-0.36 0.526,-0.537C0.516,-0.596 0.653,-0.672 0.643,-0.727C0.637,-0.929 0.469,-0.703 0.404,-0.736C0.366,-0.794 0.241,-0.96 0.164,-0.879C0.117,-0.856 0.176,-0.737 0.137,-0.709C0.12,-0.685 0.109,-0.682 0.057,-0.682C-0.124,-0.685 -0.146,-0.574 0,-0.506" style="fill-rule:nonzero;"/>
            </g>
            <g transform="matrix(8.96408,0,0,8.96408,293.737,231.122)">
                <path d="M0,1.614C0.06,1.554 0.239,1.38 0.259,1.342C0.277,1.301 0.283,1.3 0.409,1.288C0.755,1.24 0.931,1.098 1.029,0.725C1.078,0.614 1.016,0.372 0.946,0.32C0.916,0.299 0.905,0.263 0.923,0.251C0.986,0.242 1.122,0.19 1.146,0.113C1.109,0.041 1.017,0.095 0.895,0.056C0.806,0.014 0.568,-0.059 0.47,-0.006C0.402,0.077 -0.003,0.087 0.07,0.208C0.085,0.251 0.114,0.354 0.114,0.354L0.3,0.375L0.303,0.509C0.303,0.509 0.169,0.538 0.125,0.548C0.016,0.709 0.389,0.722 0.485,0.597C0.552,0.518 0.656,0.507 0.651,0.593C0.602,0.699 0.423,0.753 0.319,0.803C0.164,0.831 0.122,1.137 0.002,1.238C-0.337,1.301 -0.459,1.293 -0.794,1.02C-0.917,0.878 -1.014,0.984 -0.921,1.096C-0.982,1.116 -1.293,0.94 -1.153,1.24L-1.13,1.267C-1.283,1.489 -1.055,1.414 -0.926,1.482C-0.653,1.591 -0.353,1.673 0,1.614" style="fill-rule:nonzero;"/>
            </g>
            <g transform="matrix(8.96408,0,0,8.96408,303.483,252.754)">
                <path d="M0,-1.013L0.143,-0.715C0.143,-0.715 0.453,-0.577 0.495,-0.538C0.669,-0.409 0.64,-0.057 0.483,-0.097C0.226,-0.201 0.073,-0.565 -0.104,-0.788C-0.151,-0.826 -0.273,-1.192 -0.355,-1.099C-1.415,-0.863 -0.163,-0.591 -0.357,-0.199C-0.392,-0.142 -0.511,0.133 -0.462,0.174C-0.373,0.283 -0.174,0.363 -0.068,0.501C0.103,0.67 -0.052,0.864 -0.265,0.708C-0.386,0.615 -0.531,0.748 -0.407,0.87C-0.399,0.892 -0.48,0.927 -0.495,0.937C-0.622,1.11 -0.412,1.102 -0.303,1.015C-0.241,0.984 -0.303,1.167 -0.2,1.137C-0.007,1.093 0.293,0.996 0.345,0.693C0.466,0.416 0.187,0.462 0.119,0.219C0.05,0.12 0.044,-0.246 0.195,-0.111C0.335,0.066 0.524,0.167 0.695,0.009C0.853,-0.139 0.71,-0.502 0.628,-0.663C0.475,-0.982 0.298,-1.288 0.309,-1.671C0.524,-1.926 0.775,-1.472 0.925,-2.18C0.425,-2.146 -0.068,-1.809 0.179,-1.247C0.332,-0.928 0.298,-0.953 0,-1.013" style="fill-rule:nonzero;"/>
            </g>
            <g transform="matrix(8.96408,0,0,8.96408,296.258,258.806)">
                <path d="M0,-1.088C-0.265,-1.101 -0.467,-1.122 -0.394,-0.806C-0.378,-0.731 -0.35,-0.502 -0.304,-0.448C-0.286,-0.419 -0.29,-0.386 -0.313,-0.367C-0.42,-0.307 -0.825,-0.471 -0.776,-0.609C-0.778,-0.723 -0.89,-0.749 -0.925,-0.668C-0.944,-0.632 -0.972,-0.634 -1.013,-0.678C-1.087,-0.785 -1.192,-0.642 -1.149,-0.561C-1.133,-0.528 -1.153,-0.494 -1.19,-0.487C-1.302,-0.443 -1.296,-0.29 -1.141,-0.284C-0.804,-0.128 -0.508,0.034 -0.117,-0.022L-0.124,-0.02C0.304,-0.053 0.085,-0.134 0.065,-0.432C-0.008,-0.753 0.539,-0.963 0,-1.088" style="fill-rule:nonzero;"/>
            </g>
            <g transform="matrix(8.96408,0,0,8.96408,299.864,290.749)">
                <path d="M0,-0.073C-0.028,-0.099 -0.098,-0.07 -0.106,-0.052C-0.103,0.095 -0.257,0.049 -0.303,0.15C-0.272,0.21 -0.23,0.257 -0.164,0.251C-0.083,0.244 -0.09,0.345 -0.015,0.352C0.339,0.191 0.757,0.23 1.056,-0.045C0.944,-0.141 0.916,-0.272 0.894,-0.41C0.69,-0.394 0.492,-0.425 0.316,-0.327C0.298,-0.234 0.363,-0.184 0.409,-0.106C0.264,-0.042 0.135,-0.011 0,-0.073" style="fill-rule:nonzero;"/>
            </g>
            <g transform="matrix(8.96408,0,0,8.96408,271.663,250.06)">
                <path d="M0,11.192C0.426,10.814 0.721,10.681 1.271,10.549C1.118,10.889 0.975,11.216 0.822,11.558C0.547,11.435 0.277,11.314 0,11.192M-0.109,2.966L5.916,2.966C6.409,7.57 3.71,9.113 -0.109,10.717L-0.109,2.966ZM8.79,0.5C8.652,0.202 8.33,-1.466 7.863,-1.105C9.993,2.875 8.572,8.107 4.874,10.627C3.788,11.283 2.442,12.371 1.159,11.645C1.988,8.418 5.958,9.781 6.821,3.626C6.715,3.574 6.676,3.541 6.578,3.523C6.454,4.383 6.238,5.21 5.916,6.002C6.261,5.088 6.041,2.219 6.106,2.063C6.07,2.014 6.033,1.998 5.916,1.853C5.937,2.2 5.912,2.325 5.917,2.782L-0.109,2.782L-0.109,-3.503L5.805,-3.503L5.805,0.043C5.803,0.062 5.829,0.232 5.841,0.294C5.925,0.165 5.934,0.17 5.989,0.126L5.989,-3.687L-6.415,-3.687L-6.427,-0.473L-6.243,-0.473L-6.243,-3.503L-0.291,-3.503L-0.291,2.782L-6.031,2.782C-6.049,2.8 -6.028,2.683 -6.047,2.701C-6.047,2.683 -6.087,2.8 -6.087,2.782L-6.246,2.782C-6.249,2.489 -6.243,2.309 -6.243,2.301L-6.427,2.293C-6.56,2.765 -6.168,6.709 -5.52,7.401C-6.816,6.144 -7.223,3.915 -6.98,2.237C-6.98,2.237 -7.101,2.143 -7.233,2.022C-7.64,4.388 -6.746,6.722 -5.087,8.415C-4.944,8.57 -4.784,8.402 -4.608,8.36C-4.644,8.319 -4.722,8.26 -4.776,8.185C-4.711,8.252 -4.652,8.312 -4.608,8.36L-4.701,8.106C-6.002,7.109 -6.215,4.267 -6.243,2.966L-0.291,2.966C-0.291,2.966 -0.296,10.847 -0.301,10.866C-1.566,10.805 -2.422,9.429 -3.643,9.414C-1.888,10.455 1.322,12.963 3.35,11.864C3.366,11.884 3.363,11.881 3.379,11.9C3.166,12.167 2.414,12.672 2.079,12.543C1.527,12.209 0.676,12.815 1.066,13.432C1.118,13.504 1.148,13.569 1.089,13.665C-1.104,13.458 -3.075,12.148 -4.924,11.024C-4.942,11.045 -4.939,11.041 -4.957,11.062C-4.249,12.017 -1.717,13.206 -1.717,13.206L-1.719,14.627C-1.719,14.627 -1.558,14.737 -1.452,14.807L-1.452,13.268C-0.788,13.497 0.557,13.919 0.557,13.919L0.562,14.879L0.817,14.715L0.804,13.997L1.164,13.896C1.39,13.834 1.533,13.616 1.507,13.386C1.4,13.331 1.325,13.224 1.358,13.072C1.411,12.792 1.75,12.786 1.888,12.955C2.163,13.077 2.434,12.747 2.704,12.668C3.085,12.439 3.557,12.234 3.733,11.793C3.765,11.685 3.825,11.618 3.918,11.565C4.687,11.127 5.434,10.643 6.062,10.012C8.748,7.743 9.686,3.839 8.79,0.5" style="fill-rule:nonzero;"/>
            </g>
            <g transform="matrix(8.96408,0,0,8.96408,151.149,381.858)">
                <path d="M0,-0.98C-0.138,-1.063 -0.309,-1.089 -0.511,-1.058C-0.469,-0.752 -0.357,-0.187 -0.269,0.109C0.299,0.028 0.47,-0.68 0,-0.98" style="fill-rule:nonzero;"/>
            </g>
            <g transform="matrix(8.96408,0,0,8.96408,214.968,383.811)">
                <path d="M0,-2.678L0.256,-1.381L-0.042,-1.329L-0.304,-2.618C-0.488,-2.585 -0.591,-2.585 -0.84,-2.476L-0.848,-2.768L0.44,-2.934L0.527,-2.688C0.41,-2.73 0,-2.678 0,-2.678M-0.939,-1.158L-1.831,-0.952C-1.815,-1.088 -2.113,-2.338 -2.189,-2.45L-1.25,-2.667L-1.325,-2.351C-1.455,-2.387 -1.608,-2.385 -1.783,-2.351L-1.673,-1.897L-1.153,-2.017L-1.068,-1.796C-1.172,-1.812 -1.485,-1.731 -1.628,-1.705L-1.514,-1.231C-1.258,-1.289 -1.047,-1.377 -0.881,-1.491L-0.876,-1.491L-0.939,-1.158ZM-3.528,-0.694C-4.179,-0.679 -4.273,-1.61 -4.425,-2.068L-4.109,-2.128C-3.959,-1.727 -4.001,-0.793 -3.331,-0.917C-2.847,-1.135 -3.239,-1.903 -3.288,-2.274L-2.977,-2.318C-2.859,-1.701 -2.58,-0.63 -3.528,-0.694M-4.442,-0.554L-5.336,-0.357C-5.318,-0.492 -5.606,-1.744 -5.681,-1.858L-4.74,-2.066L-4.817,-1.75C-4.947,-1.786 -5.1,-1.788 -5.274,-1.753L-5.17,-1.298L-4.649,-1.415L-4.565,-1.193C-4.669,-1.21 -4.983,-1.132 -5.124,-1.105L-5.017,-0.632C-4.76,-0.687 -4.548,-0.773 -4.381,-0.887L-4.376,-0.884L-4.442,-0.554ZM-6.117,-0.192C-6.095,-0.633 -6.241,-1.329 -6.443,-1.724L-6.007,-1.817C-6.03,-1.374 -5.881,-0.677 -5.681,-0.283L-6.117,-0.192ZM-6.557,-0.461C-6.743,-0.018 -7.298,0.081 -7.731,0.158C-7.71,0.021 -7.975,-1.254 -8.056,-1.369C-7.306,-1.692 -6.233,-1.381 -6.557,-0.461M0.623,-3.29C-2.787,-3.284 -6.186,-1.828 -9.598,-1.828C-10.006,-1.828 -10.415,-1.849 -10.825,-1.897C-9.767,-1.062 -9.842,0.612 -8.305,0.612C-8.239,0.612 -8.169,0.61 -8.095,0.604C-6.007,0.381 -3.93,-0.209 -1.872,-0.536C-1.519,-0.589 0.184,-1.006 1.18,-1.006C1.54,-1.006 1.807,-0.951 1.887,-0.808C1.996,-0.611 1.317,-0.039 1.312,-0.016C1.31,-0.01 1.314,-0.007 1.322,-0.007C1.387,-0.007 1.763,-0.225 2.043,-0.409C3.156,-1.21 0.824,-3.29 0.623,-3.29" style="fill-rule:nonzero;"/>
            </g>
            <g transform="matrix(8.96408,0,0,8.96408,362.223,378.462)">
                <path d="M0,-1.253C-0.072,-0.968 -0.184,-0.433 -0.221,-0.141C0.448,0 0.656,-1.121 0,-1.253" style="fill-rule:nonzero;"/>
            </g>
            <g transform="matrix(8.96408,0,0,8.96408,385.737,381.229)">
                <path d="M0,-1.107C-0.511,-1.234 -0.679,-0.168 -0.252,0.003C0.27,0.127 0.428,-0.933 0,-1.107" style="fill-rule:nonzero;"/>
            </g>
            <g transform="matrix(8.96408,0,0,8.96408,373.737,375.302)">
                <path d="M0,-0.646L-0.156,-0.08C0.28,0 0.469,-0.574 0,-0.646" style="fill-rule:nonzero;"/>
            </g>
            <g transform="matrix(8.96408,0,0,8.96408,336.965,372.485)">
                <path d="M0,-1.141C-0.534,-1.288 -0.741,-0.184 -0.291,0.002C0.254,0.147 0.451,-0.949 0,-1.141" style="fill-rule:nonzero;"/>
            </g>
            <g transform="matrix(8.96408,0,0,8.96408,400.663,369.223)">
                <path d="M0,0.625C0,0.625 -0.199,1.747 -0.186,1.843L-0.524,1.782C-0.529,1.791 -0.316,0.796 -0.265,0.583C-0.384,0.557 -0.524,0.57 -0.658,0.62L-0.659,0.615L-0.524,0.332L0.392,0.498L0.456,0.809C0.378,0.734 0.13,0.649 0,0.625M-0.801,0.687C-0.835,0.947 -0.956,1.473 -0.91,1.721L-1.249,1.672C-1.099,1.289 -0.996,0.645 -1.021,0.234L-0.68,0.283C-0.737,0.395 -0.776,0.531 -0.801,0.687M-1.706,1.543C-2.574,1.706 -2.572,0.242 -1.875,0.037C-1.004,-0.147 -1.001,1.343 -1.706,1.543M-2.455,0.387C-2.497,0.553 -2.618,0.667 -2.819,0.729C-2.732,1.017 -2.679,1.113 -2.531,1.424L-2.533,1.431L-2.762,1.397C-2.811,1.369 -3.099,0.965 -3.186,0.745C-3.235,0.926 -3.287,1.156 -3.265,1.318L-3.655,1.258C-3.583,1.146 -3.279,-0.047 -3.29,-0.173C-2.953,-0.13 -2.347,-0.07 -2.455,0.387M-4.135,1.061C-4.338,1.133 -4.628,1.053 -4.841,1.009L-4.556,-0.448C-3.609,-0.511 -3.217,0.716 -4.135,1.061M-5.479,0.936C-5.585,0.915 -6.155,-0.248 -6.155,-0.248C-6.155,-0.248 -6.293,0.656 -6.329,0.719L-6.588,0.68L-6.293,-0.736L-6.005,-0.697C-6.004,-0.661 -5.551,0.296 -5.551,0.296C-5.551,0.296 -5.4,-0.48 -5.387,-0.549L-5.167,-0.487L-5.479,0.936ZM-6.669,0.021C-6.979,1.066 -8.185,0.495 -7.827,-0.438C-7.521,-1.452 -6.311,-0.917 -6.669,0.021M-7.931,-1.107C-7.981,-1.06 -8.164,0.215 -8.152,0.339L-8.496,0.272C-8.434,0.163 -8.353,-0.728 -8.353,-0.728L-8.942,0.187L-9.289,-0.843C-9.289,-0.843 -9.429,-0.103 -9.433,0.135L-9.77,0.089C-9.663,-0.086 -9.451,-1.397 -9.451,-1.397L-9.103,-1.332C-9.093,-1.263 -8.829,-0.371 -8.829,-0.371C-8.829,-0.371 -8.366,-1.151 -8.339,-1.188L-7.929,-1.112L-7.931,-1.107ZM0.529,-0.207C0.101,-0.207 -0.304,-0.215 -0.503,-0.23C-2.753,-0.449 -4.978,-1.092 -7.223,-1.447C-7.869,-1.55 -8.398,-1.647 -8.857,-1.647C-9.809,-1.647 -10.457,-1.232 -11.226,0.402C-11.553,1.024 -10.457,1.616 -10.215,1.642C-11.117,0.874 -10.802,0.646 -10.093,0.646C-9.111,0.646 -7.371,1.081 -7.031,1.125C-4.975,1.45 -2.896,2.04 -0.807,2.263C-0.734,2.269 -0.664,2.272 -0.597,2.272C0.939,2.272 0.866,0.596 1.921,-0.236C1.734,-0.22 1.112,-0.207 0.529,-0.207" style="fill-rule:nonzero;"/>
            </g>
        </g>
    </g>
</svg>
